{
	"patcher" : 	{
		"fileversion" : 1,
		"appversion" : 		{
			"major" : 6,
			"minor" : 1,
			"revision" : 8,
			"architecture" : "x86"
		}
,
		"rect" : [ 621.0, 284.0, 323.0, 289.0 ],
		"bglocked" : 0,
		"openinpresentation" : 0,
		"default_fontsize" : 12.0,
		"default_fontface" : 0,
		"default_fontname" : "Arial",
		"gridonopen" : 0,
		"gridsize" : [ 10.0, 10.0 ],
		"gridsnaponopen" : 0,
		"statusbarvisible" : 2,
		"toolbarvisible" : 1,
		"boxanimatetime" : 200,
		"imprint" : 0,
		"enablehscroll" : 1,
		"enablevscroll" : 1,
		"devicewidth" : 0.0,
		"description" : "",
		"digest" : "",
		"tags" : "",
		"boxes" : [ 			{
				"box" : 				{
					"fontname" : "Arial",
					"fontsize" : 12.0,
					"id" : "obj-15",
					"maxclass" : "newobj",
					"numinlets" : 1,
					"numoutlets" : 2,
					"outlettype" : [ "float", "int" ],
					"patching_rect" : [ 20.0, 110.0, 73.0, 20.0 ],
					"text" : "unpack 0. 0"
				}

			}
, 			{
				"box" : 				{
					"fontname" : "Arial",
					"fontsize" : 12.0,
					"id" : "obj-14",
					"maxclass" : "newobj",
					"numinlets" : 1,
					"numoutlets" : 1,
					"outlettype" : [ "" ],
					"patching_rect" : [ 20.0, 140.0, 74.0, 20.0 ],
					"text" : "prepend set"
				}

			}
, 			{
				"box" : 				{
					"color" : [ 0.156863, 0.8, 0.54902, 1.0 ],
					"fontname" : "Arial",
					"fontsize" : 12.0,
					"id" : "obj-10",
					"linecount" : 4,
					"maxclass" : "newobj",
					"numinlets" : 0,
					"numoutlets" : 1,
					"outlettype" : [ "" ],
					"patching_rect" : [ 20.0, 80.0, 31.0, 20.0 ],
					"text" : "r #1"
				}

			}
, 			{
				"box" : 				{
					"fontname" : "Arial",
					"fontsize" : 12.0,
					"id" : "obj-4",
					"linecount" : 3,
					"maxclass" : "message",
					"numinlets" : 2,
					"numoutlets" : 1,
					"outlettype" : [ "" ],
					"patching_rect" : [ 20.0, 40.0, 57.0, 32.0 ],
					"text" : ";\r#1 $1 10"
				}

			}
, 			{
				"box" : 				{
					"comment" : "",
					"id" : "obj-44",
					"maxclass" : "inlet",
					"numinlets" : 0,
					"numoutlets" : 1,
					"outlettype" : [ "float" ],
					"patching_rect" : [ 20.0, 10.0, 25.0, 25.0 ]
				}

			}
, 			{
				"box" : 				{
					"comment" : "",
					"id" : "obj-46",
					"maxclass" : "outlet",
					"numinlets" : 1,
					"numoutlets" : 0,
					"patching_rect" : [ 20.0, 170.0, 25.0, 25.0 ]
				}

			}
 ],
		"lines" : [ 			{
				"patchline" : 				{
					"destination" : [ "obj-15", 0 ],
					"disabled" : 0,
					"hidden" : 0,
					"source" : [ "obj-10", 0 ]
				}

			}
, 			{
				"patchline" : 				{
					"destination" : [ "obj-46", 0 ],
					"disabled" : 0,
					"hidden" : 0,
					"source" : [ "obj-14", 0 ]
				}

			}
, 			{
				"patchline" : 				{
					"destination" : [ "obj-14", 0 ],
					"disabled" : 0,
					"hidden" : 0,
					"source" : [ "obj-15", 0 ]
				}

			}
, 			{
				"patchline" : 				{
					"destination" : [ "obj-4", 0 ],
					"disabled" : 0,
					"hidden" : 0,
					"source" : [ "obj-44", 0 ]
				}

			}
 ]
	}

}
