{
	"patcher" : 	{
		"fileversion" : 1,
		"appversion" : 		{
			"major" : 7,
			"minor" : 0,
			"revision" : 1,
			"architecture" : "x86",
			"modernui" : 1
		}
,
		"rect" : [ 38.0, 79.0, 997.0, 787.0 ],
		"bglocked" : 0,
		"openinpresentation" : 1,
		"default_fontsize" : 13.0,
		"default_fontface" : 0,
		"default_fontname" : "Helvetica Neue",
		"gridonopen" : 2,
		"gridsize" : [ 15.0, 15.0 ],
		"gridsnaponopen" : 1,
		"objectsnaponopen" : 1,
		"statusbarvisible" : 2,
		"toolbarvisible" : 1,
		"lefttoolbarpinned" : 0,
		"toptoolbarpinned" : 0,
		"righttoolbarpinned" : 0,
		"bottomtoolbarpinned" : 0,
		"toolbars_unpinned_last_save" : 0,
		"tallnewobj" : 0,
		"boxanimatetime" : 200,
		"enablehscroll" : 1,
		"enablevscroll" : 1,
		"devicewidth" : 0.0,
		"description" : "",
		"digest" : "",
		"tags" : "",
		"style" : "",
		"subpatcher_template" : "",
		"showontab" : 1,
		"boxes" : [ 			{
				"box" : 				{
					"fontface" : 2,
					"fontname" : "Helvetica Neue",
					"fontsize" : 13.0,
					"id" : "obj-16",
					"linecount" : 3,
					"maxclass" : "comment",
					"numinlets" : 1,
					"numoutlets" : 0,
					"patching_rect" : [ 640.0, 252.0, 155.0, 52.0 ],
					"style" : "",
					"text" : "Every delay successive to Delay 1 increases his dipendent time value."
				}

			}
, 			{
				"box" : 				{
					"fontface" : 2,
					"fontname" : "Helvetica Neue",
					"fontsize" : 13.0,
					"id" : "obj-15",
					"linecount" : 3,
					"maxclass" : "comment",
					"numinlets" : 1,
					"numoutlets" : 0,
					"patching_rect" : [ 792.0, 135.0, 162.0, 52.0 ],
					"style" : "",
					"text" : "Allows for pseudo-casual offset addition once Fixed is selected."
				}

			}
, 			{
				"box" : 				{
					"id" : "obj-14",
					"maxclass" : "newobj",
					"numinlets" : 2,
					"numoutlets" : 1,
					"outlettype" : [ "int" ],
					"patching_rect" : [ 598.5, 266.0, 29.5, 24.0 ],
					"style" : "",
					"text" : "* 3"
				}

			}
, 			{
				"box" : 				{
					"id" : "obj-13",
					"maxclass" : "newobj",
					"numinlets" : 2,
					"numoutlets" : 1,
					"outlettype" : [ "int" ],
					"patching_rect" : [ 460.5, 266.0, 29.5, 24.0 ],
					"style" : "",
					"text" : "* 2"
				}

			}
, 			{
				"box" : 				{
					"id" : "obj-12",
					"maxclass" : "newobj",
					"numinlets" : 2,
					"numoutlets" : 1,
					"outlettype" : [ "int" ],
					"patching_rect" : [ 588.0, 309.0, 29.5, 24.0 ],
					"style" : "",
					"text" : "+"
				}

			}
, 			{
				"box" : 				{
					"id" : "obj-11",
					"maxclass" : "newobj",
					"numinlets" : 2,
					"numoutlets" : 1,
					"outlettype" : [ "int" ],
					"patching_rect" : [ 450.0, 309.0, 29.5, 24.0 ],
					"style" : "",
					"text" : "+"
				}

			}
, 			{
				"box" : 				{
					"id" : "obj-10",
					"maxclass" : "newobj",
					"numinlets" : 2,
					"numoutlets" : 1,
					"outlettype" : [ "int" ],
					"patching_rect" : [ 311.0, 309.0, 29.5, 24.0 ],
					"style" : "",
					"text" : "+"
				}

			}
, 			{
				"box" : 				{
					"id" : "obj-9",
					"maxclass" : "newobj",
					"numinlets" : 2,
					"numoutlets" : 2,
					"outlettype" : [ "bang", "" ],
					"patching_rect" : [ 713.0, 85.5, 38.0, 24.0 ],
					"style" : "",
					"text" : "sel 1"
				}

			}
, 			{
				"box" : 				{
					"id" : "obj-8",
					"maxclass" : "button",
					"numinlets" : 1,
					"numoutlets" : 1,
					"outlettype" : [ "bang" ],
					"patching_rect" : [ 713.0, 116.0, 24.0, 24.0 ],
					"style" : ""
				}

			}
, 			{
				"box" : 				{
					"id" : "obj-6",
					"maxclass" : "newobj",
					"numinlets" : 2,
					"numoutlets" : 1,
					"outlettype" : [ "int" ],
					"patching_rect" : [ 713.0, 183.0, 36.0, 24.0 ],
					"style" : "",
					"text" : "+ 50"
				}

			}
, 			{
				"box" : 				{
					"id" : "obj-5",
					"maxclass" : "newobj",
					"numinlets" : 2,
					"numoutlets" : 1,
					"outlettype" : [ "int" ],
					"patching_rect" : [ 713.0, 149.0, 73.0, 24.0 ],
					"style" : "",
					"text" : "random 50"
				}

			}
, 			{
				"box" : 				{
					"fontface" : 2,
					"fontname" : "Helvetica Neue",
					"fontsize" : 13.0,
					"id" : "obj-105",
					"maxclass" : "comment",
					"numinlets" : 1,
					"numoutlets" : 0,
					"patching_rect" : [ 145.0, 7.0, 84.0, 22.0 ],
					"presentation" : 1,
					"presentation_rect" : [ 117.0, 155.866699, 84.0, 22.0 ],
					"style" : "",
					"text" : "Delay mode"
				}

			}
, 			{
				"box" : 				{
					"fontface" : 1,
					"fontname" : "Helvetica Neue",
					"fontsize" : 13.0,
					"id" : "obj-145",
					"maxclass" : "newobj",
					"numinlets" : 3,
					"numoutlets" : 4,
					"outlettype" : [ "int", "int", "int", "int" ],
					"patching_rect" : [ 38.0, 241.0, 126.0, 24.0 ],
					"style" : "",
					"text" : "patterns.man-fix"
				}

			}
, 			{
				"box" : 				{
					"fontface" : 2,
					"fontname" : "Helvetica Neue",
					"fontsize" : 13.0,
					"id" : "obj-144",
					"maxclass" : "comment",
					"numinlets" : 1,
					"numoutlets" : 0,
					"patching_rect" : [ 249.0, 32.5, 178.0, 22.0 ],
					"style" : "",
					"text" : "Delay mode (manual, fixed)"
				}

			}
, 			{
				"box" : 				{
					"fontname" : "Helvetica Neue",
					"fontsize" : 13.0,
					"id" : "obj-125",
					"maxclass" : "newobj",
					"numinlets" : 0,
					"numoutlets" : 1,
					"outlettype" : [ "" ],
					"patching_rect" : [ 377.5, 92.0, 79.0, 24.0 ],
					"style" : "",
					"text" : "r feedback"
				}

			}
, 			{
				"box" : 				{
					"fontname" : "Helvetica Neue",
					"fontsize" : 13.0,
					"id" : "obj-124",
					"maxclass" : "newobj",
					"numinlets" : 0,
					"numoutlets" : 1,
					"outlettype" : [ "" ],
					"patching_rect" : [ 311.0, 92.0, 66.0, 24.0 ],
					"style" : "",
					"text" : "r deltime"
				}

			}
, 			{
				"box" : 				{
					"id" : "obj-47",
					"items" : [ "Manual", ",", "Fixed", ",", "Random" ],
					"maxclass" : "umenu",
					"numinlets" : 1,
					"numoutlets" : 3,
					"outlettype" : [ "int", "", "" ],
					"parameter_enable" : 0,
					"patching_rect" : [ 145.0, 31.5, 100.0, 24.0 ],
					"presentation" : 1,
					"presentation_rect" : [ 1.5, 154.866699, 100.0, 24.0 ],
					"style" : ""
				}

			}
, 			{
				"box" : 				{
					"fontface" : 0,
					"fontname" : "Helvetica Neue",
					"fontsize" : 13.0,
					"id" : "obj-180",
					"maxclass" : "comment",
					"numinlets" : 1,
					"numoutlets" : 0,
					"patching_rect" : [ 602.5, 349.0, 60.0, 22.0 ],
					"presentation" : 1,
					"presentation_rect" : [ 121.5, 74.666687, 60.0, 22.0 ],
					"style" : "",
					"text" : "DELAY 4"
				}

			}
, 			{
				"box" : 				{
					"fontface" : 0,
					"fontname" : "Helvetica Neue",
					"fontsize" : 13.0,
					"id" : "obj-179",
					"maxclass" : "comment",
					"numinlets" : 1,
					"numoutlets" : 0,
					"patching_rect" : [ 465.5, 349.0, 60.0, 22.0 ],
					"presentation" : 1,
					"presentation_rect" : [ 1.5, 74.666687, 60.0, 22.0 ],
					"style" : "",
					"text" : "DELAY 3"
				}

			}
, 			{
				"box" : 				{
					"fontface" : 0,
					"fontname" : "Helvetica Neue",
					"fontsize" : 13.0,
					"id" : "obj-178",
					"maxclass" : "comment",
					"numinlets" : 1,
					"numoutlets" : 0,
					"patching_rect" : [ 328.5, 349.0, 60.0, 22.0 ],
					"presentation" : 1,
					"presentation_rect" : [ 117.0, 0.0, 60.0, 22.0 ],
					"style" : "",
					"text" : "DELAY 2"
				}

			}
, 			{
				"box" : 				{
					"fontface" : 0,
					"fontname" : "Helvetica Neue",
					"fontsize" : 13.0,
					"id" : "obj-177",
					"maxclass" : "comment",
					"numinlets" : 1,
					"numoutlets" : 0,
					"patching_rect" : [ 193.5, 349.0, 60.0, 22.0 ],
					"presentation" : 1,
					"presentation_rect" : [ 1.5, 0.0, 60.0, 22.0 ],
					"style" : "",
					"text" : "DELAY 1"
				}

			}
, 			{
				"box" : 				{
					"fontface" : 2,
					"fontname" : "Helvetica Neue",
					"fontsize" : 13.0,
					"id" : "obj-176",
					"maxclass" : "comment",
					"numinlets" : 1,
					"numoutlets" : 0,
					"patching_rect" : [ 646.0, 376.0, 72.0, 22.0 ],
					"presentation" : 1,
					"presentation_rect" : [ 173.5, 125.0, 72.0, 22.0 ],
					"style" : "",
					"text" : "Feedback"
				}

			}
, 			{
				"box" : 				{
					"fontface" : 2,
					"fontname" : "Helvetica Neue",
					"fontsize" : 13.0,
					"id" : "obj-175",
					"maxclass" : "comment",
					"numinlets" : 1,
					"numoutlets" : 0,
					"patching_rect" : [ 506.0, 376.0, 72.0, 22.0 ],
					"presentation" : 1,
					"presentation_rect" : [ 56.0, 125.0, 72.0, 22.0 ],
					"style" : "",
					"text" : "Feedback"
				}

			}
, 			{
				"box" : 				{
					"fontface" : 2,
					"fontname" : "Helvetica Neue",
					"fontsize" : 13.0,
					"id" : "obj-174",
					"maxclass" : "comment",
					"numinlets" : 1,
					"numoutlets" : 0,
					"patching_rect" : [ 366.5, 376.0, 72.0, 22.0 ],
					"presentation" : 1,
					"presentation_rect" : [ 173.5, 47.900024, 72.0, 22.0 ],
					"style" : "",
					"text" : "Feedback"
				}

			}
, 			{
				"box" : 				{
					"fontface" : 2,
					"fontname" : "Helvetica Neue",
					"fontsize" : 13.0,
					"id" : "obj-173",
					"maxclass" : "comment",
					"numinlets" : 1,
					"numoutlets" : 0,
					"patching_rect" : [ 227.5, 376.0, 72.0, 22.0 ],
					"presentation" : 1,
					"presentation_rect" : [ 52.5, 49.900024, 72.0, 22.0 ],
					"style" : "",
					"text" : "Feedback"
				}

			}
, 			{
				"box" : 				{
					"fontface" : 2,
					"fontname" : "Helvetica Neue",
					"fontsize" : 13.0,
					"id" : "obj-172",
					"maxclass" : "comment",
					"numinlets" : 1,
					"numoutlets" : 0,
					"patching_rect" : [ 588.0, 376.0, 42.0, 22.0 ],
					"presentation" : 1,
					"presentation_rect" : [ 173.5, 100.0, 42.0, 22.0 ],
					"style" : "",
					"text" : "Time"
				}

			}
, 			{
				"box" : 				{
					"fontface" : 2,
					"fontname" : "Helvetica Neue",
					"fontsize" : 13.0,
					"id" : "obj-171",
					"maxclass" : "comment",
					"numinlets" : 1,
					"numoutlets" : 0,
					"patching_rect" : [ 167.5, 376.0, 42.0, 22.0 ],
					"presentation" : 1,
					"presentation_rect" : [ 52.5, 24.900024, 42.0, 22.0 ],
					"style" : "",
					"text" : "Time"
				}

			}
, 			{
				"box" : 				{
					"fontface" : 2,
					"fontname" : "Helvetica Neue",
					"fontsize" : 13.0,
					"id" : "obj-170",
					"maxclass" : "comment",
					"numinlets" : 1,
					"numoutlets" : 0,
					"patching_rect" : [ 450.0, 376.0, 42.0, 22.0 ],
					"presentation" : 1,
					"presentation_rect" : [ 52.5, 100.0, 42.0, 22.0 ],
					"style" : "",
					"text" : "Time"
				}

			}
, 			{
				"box" : 				{
					"fontface" : 2,
					"fontname" : "Helvetica Neue",
					"fontsize" : 13.0,
					"id" : "obj-169",
					"maxclass" : "comment",
					"numinlets" : 1,
					"numoutlets" : 0,
					"patching_rect" : [ 311.0, 376.0, 42.0, 22.0 ],
					"presentation" : 1,
					"presentation_rect" : [ 173.5, 22.900024, 42.0, 22.0 ],
					"style" : "",
					"text" : "Time"
				}

			}
, 			{
				"box" : 				{
					"fontname" : "Helvetica Neue",
					"fontsize" : 13.0,
					"id" : "obj-168",
					"maxclass" : "number",
					"maximum" : 3000,
					"minimum" : 0,
					"numinlets" : 1,
					"numoutlets" : 2,
					"outlettype" : [ "", "bang" ],
					"parameter_enable" : 0,
					"patching_rect" : [ 588.0, 403.0, 53.0, 24.0 ],
					"presentation" : 1,
					"presentation_rect" : [ 121.5, 100.0, 53.0, 24.0 ],
					"style" : ""
				}

			}
, 			{
				"box" : 				{
					"fontface" : 1,
					"fontname" : "Helvetica Neue",
					"fontsize" : 13.0,
					"id" : "obj-167",
					"linecount" : 2,
					"maxclass" : "newobj",
					"numinlets" : 1,
					"numoutlets" : 2,
					"outlettype" : [ "float", "" ],
					"patching_rect" : [ 588.0, 443.0, 67.0, 39.0 ],
					"style" : "",
					"text" : "patterns.target 4"
				}

			}
, 			{
				"box" : 				{
					"fontname" : "Helvetica Neue",
					"fontsize" : 13.0,
					"format" : 6,
					"id" : "obj-166",
					"maxclass" : "flonum",
					"maximum" : 1.0,
					"minimum" : 0.0,
					"numinlets" : 1,
					"numoutlets" : 2,
					"outlettype" : [ "", "bang" ],
					"parameter_enable" : 0,
					"patching_rect" : [ 517.0, 403.0, 50.0, 24.0 ],
					"presentation" : 1,
					"presentation_rect" : [ 1.5, 125.0, 53.0, 24.0 ],
					"style" : ""
				}

			}
, 			{
				"box" : 				{
					"fontface" : 1,
					"fontname" : "Helvetica Neue",
					"fontsize" : 13.0,
					"id" : "obj-165",
					"linecount" : 2,
					"maxclass" : "newobj",
					"numinlets" : 1,
					"numoutlets" : 2,
					"outlettype" : [ "float", "" ],
					"patching_rect" : [ 517.0, 443.0, 66.0, 39.0 ],
					"style" : "",
					"text" : "patterns.target 3"
				}

			}
, 			{
				"box" : 				{
					"fontname" : "Helvetica Neue",
					"fontsize" : 13.0,
					"format" : 6,
					"id" : "obj-163",
					"maxclass" : "flonum",
					"maximum" : 1.0,
					"minimum" : 0.0,
					"numinlets" : 1,
					"numoutlets" : 2,
					"outlettype" : [ "", "bang" ],
					"parameter_enable" : 0,
					"patching_rect" : [ 657.0, 403.0, 50.0, 24.0 ],
					"presentation" : 1,
					"presentation_rect" : [ 121.5, 125.0, 53.0, 24.0 ],
					"style" : ""
				}

			}
, 			{
				"box" : 				{
					"fontface" : 1,
					"fontname" : "Helvetica Neue",
					"fontsize" : 13.0,
					"id" : "obj-162",
					"linecount" : 2,
					"maxclass" : "newobj",
					"numinlets" : 1,
					"numoutlets" : 2,
					"outlettype" : [ "float", "" ],
					"patching_rect" : [ 657.0, 443.0, 67.0, 39.0 ],
					"style" : "",
					"text" : "patterns.target 4"
				}

			}
, 			{
				"box" : 				{
					"fontname" : "Helvetica Neue",
					"fontsize" : 13.0,
					"id" : "obj-161",
					"maxclass" : "number",
					"maximum" : 3000,
					"minimum" : 0,
					"numinlets" : 1,
					"numoutlets" : 2,
					"outlettype" : [ "", "bang" ],
					"parameter_enable" : 0,
					"patching_rect" : [ 450.0, 403.0, 53.0, 24.0 ],
					"presentation" : 1,
					"presentation_rect" : [ 1.5, 99.0, 53.0, 24.0 ],
					"style" : ""
				}

			}
, 			{
				"box" : 				{
					"fontface" : 1,
					"fontname" : "Helvetica Neue",
					"fontsize" : 13.0,
					"id" : "obj-160",
					"linecount" : 2,
					"maxclass" : "newobj",
					"numinlets" : 1,
					"numoutlets" : 2,
					"outlettype" : [ "float", "" ],
					"patching_rect" : [ 449.0, 443.0, 66.0, 39.0 ],
					"style" : "",
					"text" : "patterns.target 3"
				}

			}
, 			{
				"box" : 				{
					"fontname" : "Helvetica Neue",
					"fontsize" : 13.0,
					"format" : 6,
					"id" : "obj-159",
					"maxclass" : "flonum",
					"maximum" : 1.0,
					"minimum" : 0.0,
					"numinlets" : 1,
					"numoutlets" : 2,
					"outlettype" : [ "", "bang" ],
					"parameter_enable" : 0,
					"patching_rect" : [ 377.5, 403.0, 50.0, 24.0 ],
					"presentation" : 1,
					"presentation_rect" : [ 121.5, 47.900024, 53.0, 24.0 ],
					"style" : ""
				}

			}
, 			{
				"box" : 				{
					"fontface" : 1,
					"fontname" : "Helvetica Neue",
					"fontsize" : 13.0,
					"id" : "obj-158",
					"linecount" : 2,
					"maxclass" : "newobj",
					"numinlets" : 1,
					"numoutlets" : 2,
					"outlettype" : [ "float", "" ],
					"patching_rect" : [ 377.5, 443.0, 67.0, 39.0 ],
					"style" : "",
					"text" : "patterns.target 2"
				}

			}
, 			{
				"box" : 				{
					"fontface" : 1,
					"fontname" : "Helvetica Neue",
					"fontsize" : 13.0,
					"id" : "obj-156",
					"linecount" : 2,
					"maxclass" : "newobj",
					"numinlets" : 1,
					"numoutlets" : 2,
					"outlettype" : [ "float", "" ],
					"patching_rect" : [ 311.0, 443.0, 67.0, 39.0 ],
					"style" : "",
					"text" : "patterns.target 2"
				}

			}
, 			{
				"box" : 				{
					"fontname" : "Helvetica Neue",
					"fontsize" : 13.0,
					"id" : "obj-157",
					"maxclass" : "number",
					"maximum" : 3000,
					"minimum" : 0,
					"numinlets" : 1,
					"numoutlets" : 2,
					"outlettype" : [ "", "bang" ],
					"parameter_enable" : 0,
					"patching_rect" : [ 311.0, 403.0, 53.0, 24.0 ],
					"presentation" : 1,
					"presentation_rect" : [ 121.5, 22.900024, 53.0, 24.0 ],
					"style" : ""
				}

			}
, 			{
				"box" : 				{
					"fontface" : 1,
					"fontname" : "Helvetica Neue",
					"fontsize" : 13.0,
					"id" : "obj-151",
					"linecount" : 2,
					"maxclass" : "newobj",
					"numinlets" : 1,
					"numoutlets" : 2,
					"outlettype" : [ "float", "" ],
					"patching_rect" : [ 238.5, 443.0, 67.0, 39.0 ],
					"style" : "",
					"text" : "patterns.target 1"
				}

			}
, 			{
				"box" : 				{
					"fontface" : 1,
					"fontname" : "Helvetica Neue",
					"fontsize" : 13.0,
					"id" : "obj-140",
					"linecount" : 2,
					"maxclass" : "newobj",
					"numinlets" : 1,
					"numoutlets" : 2,
					"outlettype" : [ "float", "" ],
					"patching_rect" : [ 167.5, 443.0, 67.0, 39.0 ],
					"style" : "",
					"text" : "patterns.target 1"
				}

			}
, 			{
				"box" : 				{
					"fontname" : "Helvetica Neue",
					"fontsize" : 13.0,
					"format" : 6,
					"id" : "obj-137",
					"maxclass" : "flonum",
					"maximum" : 1.0,
					"minimum" : 0.0,
					"numinlets" : 1,
					"numoutlets" : 2,
					"outlettype" : [ "", "bang" ],
					"parameter_enable" : 0,
					"patching_rect" : [ 238.5, 403.0, 50.0, 24.0 ],
					"presentation" : 1,
					"presentation_rect" : [ 1.5, 49.900024, 53.0, 24.0 ],
					"style" : ""
				}

			}
, 			{
				"box" : 				{
					"fontname" : "Helvetica Neue",
					"fontsize" : 13.0,
					"id" : "obj-135",
					"maxclass" : "number",
					"maximum" : 3000,
					"minimum" : 0,
					"numinlets" : 1,
					"numoutlets" : 2,
					"outlettype" : [ "", "bang" ],
					"parameter_enable" : 0,
					"patching_rect" : [ 167.5, 403.0, 53.0, 24.0 ],
					"presentation" : 1,
					"presentation_rect" : [ 1.5, 24.900024, 53.0, 24.0 ],
					"style" : ""
				}

			}
, 			{
				"box" : 				{
					"comment" : "delay-time",
					"id" : "obj-3",
					"maxclass" : "outlet",
					"numinlets" : 1,
					"numoutlets" : 0,
					"patching_rect" : [ 167.5, 559.0, 30.0, 30.0 ],
					"style" : ""
				}

			}
, 			{
				"box" : 				{
					"comment" : "target-messages",
					"id" : "obj-17",
					"maxclass" : "outlet",
					"numinlets" : 1,
					"numoutlets" : 0,
					"patching_rect" : [ 425.5, 559.0, 30.0, 30.0 ],
					"style" : ""
				}

			}
, 			{
				"box" : 				{
					"comment" : "feedback",
					"id" : "obj-48",
					"maxclass" : "outlet",
					"numinlets" : 1,
					"numoutlets" : 0,
					"patching_rect" : [ 657.0, 559.0, 30.0, 30.0 ],
					"style" : ""
				}

			}
 ],
		"lines" : [ 			{
				"patchline" : 				{
					"destination" : [ "obj-157", 0 ],
					"disabled" : 0,
					"hidden" : 0,
					"source" : [ "obj-10", 0 ]
				}

			}
, 			{
				"patchline" : 				{
					"destination" : [ "obj-161", 0 ],
					"disabled" : 0,
					"hidden" : 0,
					"source" : [ "obj-11", 0 ]
				}

			}
, 			{
				"patchline" : 				{
					"destination" : [ "obj-168", 0 ],
					"disabled" : 0,
					"hidden" : 0,
					"source" : [ "obj-12", 0 ]
				}

			}
, 			{
				"patchline" : 				{
					"destination" : [ "obj-10", 0 ],
					"disabled" : 0,
					"hidden" : 0,
					"midpoints" : [ 320.5, 191.5, 320.5, 191.5 ],
					"source" : [ "obj-124", 0 ]
				}

			}
, 			{
				"patchline" : 				{
					"destination" : [ "obj-11", 0 ],
					"disabled" : 0,
					"hidden" : 0,
					"midpoints" : [ 320.5, 169.5, 459.5, 169.5 ],
					"source" : [ "obj-124", 0 ]
				}

			}
, 			{
				"patchline" : 				{
					"destination" : [ "obj-12", 0 ],
					"disabled" : 0,
					"hidden" : 0,
					"midpoints" : [ 320.5, 153.5, 597.5, 153.5 ],
					"source" : [ "obj-124", 0 ]
				}

			}
, 			{
				"patchline" : 				{
					"destination" : [ "obj-159", 0 ],
					"disabled" : 0,
					"hidden" : 0,
					"midpoints" : [ 387.0, 206.5, 387.0, 206.5 ],
					"source" : [ "obj-125", 0 ]
				}

			}
, 			{
				"patchline" : 				{
					"destination" : [ "obj-163", 0 ],
					"disabled" : 0,
					"hidden" : 0,
					"midpoints" : [ 387.0, 145.5, 666.5, 145.5 ],
					"source" : [ "obj-125", 0 ]
				}

			}
, 			{
				"patchline" : 				{
					"destination" : [ "obj-166", 0 ],
					"disabled" : 0,
					"hidden" : 0,
					"midpoints" : [ 387.0, 159.5, 526.5, 159.5 ],
					"source" : [ "obj-125", 0 ]
				}

			}
, 			{
				"patchline" : 				{
					"destination" : [ "obj-11", 1 ],
					"disabled" : 0,
					"hidden" : 0,
					"source" : [ "obj-13", 0 ]
				}

			}
, 			{
				"patchline" : 				{
					"destination" : [ "obj-140", 0 ],
					"disabled" : 0,
					"hidden" : 0,
					"source" : [ "obj-135", 0 ]
				}

			}
, 			{
				"patchline" : 				{
					"destination" : [ "obj-145", 0 ],
					"disabled" : 0,
					"hidden" : 0,
					"source" : [ "obj-135", 0 ]
				}

			}
, 			{
				"patchline" : 				{
					"destination" : [ "obj-145", 1 ],
					"disabled" : 0,
					"hidden" : 0,
					"source" : [ "obj-137", 0 ]
				}

			}
, 			{
				"patchline" : 				{
					"destination" : [ "obj-151", 0 ],
					"disabled" : 0,
					"hidden" : 0,
					"source" : [ "obj-137", 0 ]
				}

			}
, 			{
				"patchline" : 				{
					"destination" : [ "obj-12", 1 ],
					"disabled" : 0,
					"hidden" : 0,
					"source" : [ "obj-14", 0 ]
				}

			}
, 			{
				"patchline" : 				{
					"destination" : [ "obj-17", 0 ],
					"disabled" : 0,
					"hidden" : 0,
					"source" : [ "obj-140", 1 ]
				}

			}
, 			{
				"patchline" : 				{
					"destination" : [ "obj-3", 0 ],
					"disabled" : 0,
					"hidden" : 0,
					"source" : [ "obj-140", 0 ]
				}

			}
, 			{
				"patchline" : 				{
					"destination" : [ "obj-135", 0 ],
					"disabled" : 0,
					"hidden" : 0,
					"midpoints" : [ 47.5, 333.5, 177.0, 333.5 ],
					"source" : [ "obj-145", 0 ]
				}

			}
, 			{
				"patchline" : 				{
					"destination" : [ "obj-157", 0 ],
					"disabled" : 0,
					"hidden" : 0,
					"midpoints" : [ 83.166664, 333.5, 320.5, 333.5 ],
					"source" : [ "obj-145", 1 ]
				}

			}
, 			{
				"patchline" : 				{
					"destination" : [ "obj-161", 0 ],
					"disabled" : 0,
					"hidden" : 0,
					"midpoints" : [ 118.833336, 333.5, 459.5, 333.5 ],
					"source" : [ "obj-145", 2 ]
				}

			}
, 			{
				"patchline" : 				{
					"destination" : [ "obj-168", 0 ],
					"disabled" : 0,
					"hidden" : 0,
					"midpoints" : [ 154.5, 333.5, 597.5, 333.5 ],
					"source" : [ "obj-145", 3 ]
				}

			}
, 			{
				"patchline" : 				{
					"destination" : [ "obj-17", 0 ],
					"disabled" : 0,
					"hidden" : 0,
					"source" : [ "obj-151", 1 ]
				}

			}
, 			{
				"patchline" : 				{
					"destination" : [ "obj-48", 0 ],
					"disabled" : 0,
					"hidden" : 0,
					"midpoints" : [ 248.0, 520.0, 666.5, 520.0 ],
					"source" : [ "obj-151", 0 ]
				}

			}
, 			{
				"patchline" : 				{
					"destination" : [ "obj-17", 0 ],
					"disabled" : 0,
					"hidden" : 0,
					"source" : [ "obj-156", 1 ]
				}

			}
, 			{
				"patchline" : 				{
					"destination" : [ "obj-3", 0 ],
					"disabled" : 0,
					"hidden" : 0,
					"midpoints" : [ 320.5, 520.0, 177.0, 520.0 ],
					"source" : [ "obj-156", 0 ]
				}

			}
, 			{
				"patchline" : 				{
					"destination" : [ "obj-156", 0 ],
					"disabled" : 0,
					"hidden" : 0,
					"source" : [ "obj-157", 0 ]
				}

			}
, 			{
				"patchline" : 				{
					"destination" : [ "obj-17", 0 ],
					"disabled" : 0,
					"hidden" : 0,
					"source" : [ "obj-158", 1 ]
				}

			}
, 			{
				"patchline" : 				{
					"destination" : [ "obj-48", 0 ],
					"disabled" : 0,
					"hidden" : 0,
					"midpoints" : [ 387.0, 520.0, 666.5, 520.0 ],
					"source" : [ "obj-158", 0 ]
				}

			}
, 			{
				"patchline" : 				{
					"destination" : [ "obj-158", 0 ],
					"disabled" : 0,
					"hidden" : 0,
					"source" : [ "obj-159", 0 ]
				}

			}
, 			{
				"patchline" : 				{
					"destination" : [ "obj-17", 0 ],
					"disabled" : 0,
					"hidden" : 0,
					"source" : [ "obj-160", 1 ]
				}

			}
, 			{
				"patchline" : 				{
					"destination" : [ "obj-3", 0 ],
					"disabled" : 0,
					"hidden" : 0,
					"midpoints" : [ 458.5, 520.0, 177.0, 520.0 ],
					"source" : [ "obj-160", 0 ]
				}

			}
, 			{
				"patchline" : 				{
					"destination" : [ "obj-160", 0 ],
					"disabled" : 0,
					"hidden" : 0,
					"source" : [ "obj-161", 0 ]
				}

			}
, 			{
				"patchline" : 				{
					"destination" : [ "obj-17", 0 ],
					"disabled" : 0,
					"hidden" : 0,
					"source" : [ "obj-162", 1 ]
				}

			}
, 			{
				"patchline" : 				{
					"destination" : [ "obj-48", 0 ],
					"disabled" : 0,
					"hidden" : 0,
					"source" : [ "obj-162", 0 ]
				}

			}
, 			{
				"patchline" : 				{
					"destination" : [ "obj-162", 0 ],
					"disabled" : 0,
					"hidden" : 0,
					"source" : [ "obj-163", 0 ]
				}

			}
, 			{
				"patchline" : 				{
					"destination" : [ "obj-17", 0 ],
					"disabled" : 0,
					"hidden" : 0,
					"source" : [ "obj-165", 1 ]
				}

			}
, 			{
				"patchline" : 				{
					"destination" : [ "obj-48", 0 ],
					"disabled" : 0,
					"hidden" : 0,
					"midpoints" : [ 526.5, 520.0, 666.5, 520.0 ],
					"source" : [ "obj-165", 0 ]
				}

			}
, 			{
				"patchline" : 				{
					"destination" : [ "obj-165", 0 ],
					"disabled" : 0,
					"hidden" : 0,
					"source" : [ "obj-166", 0 ]
				}

			}
, 			{
				"patchline" : 				{
					"destination" : [ "obj-17", 0 ],
					"disabled" : 0,
					"hidden" : 0,
					"source" : [ "obj-167", 1 ]
				}

			}
, 			{
				"patchline" : 				{
					"destination" : [ "obj-3", 0 ],
					"disabled" : 0,
					"hidden" : 0,
					"midpoints" : [ 597.5, 520.0, 177.0, 520.0 ],
					"source" : [ "obj-167", 0 ]
				}

			}
, 			{
				"patchline" : 				{
					"destination" : [ "obj-167", 0 ],
					"disabled" : 0,
					"hidden" : 0,
					"source" : [ "obj-168", 0 ]
				}

			}
, 			{
				"patchline" : 				{
					"destination" : [ "obj-145", 2 ],
					"disabled" : 0,
					"hidden" : 0,
					"source" : [ "obj-47", 0 ]
				}

			}
, 			{
				"patchline" : 				{
					"destination" : [ "obj-9", 0 ],
					"disabled" : 0,
					"hidden" : 0,
					"midpoints" : [ 154.5, 70.0, 722.5, 70.0 ],
					"source" : [ "obj-47", 0 ]
				}

			}
, 			{
				"patchline" : 				{
					"destination" : [ "obj-6", 0 ],
					"disabled" : 0,
					"hidden" : 0,
					"source" : [ "obj-5", 0 ]
				}

			}
, 			{
				"patchline" : 				{
					"destination" : [ "obj-10", 1 ],
					"disabled" : 0,
					"hidden" : 0,
					"midpoints" : [ 722.5, 219.0, 331.0, 219.0 ],
					"source" : [ "obj-6", 0 ]
				}

			}
, 			{
				"patchline" : 				{
					"destination" : [ "obj-13", 0 ],
					"disabled" : 0,
					"hidden" : 0,
					"midpoints" : [ 722.5, 235.0, 470.0, 235.0 ],
					"source" : [ "obj-6", 0 ]
				}

			}
, 			{
				"patchline" : 				{
					"destination" : [ "obj-14", 0 ],
					"disabled" : 0,
					"hidden" : 0,
					"midpoints" : [ 722.5, 235.0, 608.0, 235.0 ],
					"source" : [ "obj-6", 0 ]
				}

			}
, 			{
				"patchline" : 				{
					"destination" : [ "obj-5", 0 ],
					"disabled" : 0,
					"hidden" : 0,
					"source" : [ "obj-8", 0 ]
				}

			}
, 			{
				"patchline" : 				{
					"destination" : [ "obj-8", 0 ],
					"disabled" : 0,
					"hidden" : 0,
					"source" : [ "obj-9", 0 ]
				}

			}
 ],
		"dependency_cache" : [ 			{
				"name" : "patterns.target.maxpat",
				"bootpath" : "~/Dropbox/tesi pattern/Harmonizer/patches",
				"patcherrelativepath" : ".",
				"type" : "JSON",
				"implicit" : 1
			}
, 			{
				"name" : "patterns.man-fix.maxpat",
				"bootpath" : "~/Dropbox/tesi pattern/Harmonizer/patches",
				"patcherrelativepath" : ".",
				"type" : "JSON",
				"implicit" : 1
			}
 ],
		"embedsnapshot" : 0
	}

}
