{
	"patcher" : 	{
		"fileversion" : 1,
		"appversion" : 		{
			"major" : 6,
			"minor" : 1,
			"revision" : 7,
			"architecture" : "x86"
		}
,
		"rect" : [ 900.0, 509.0, 540.0, 224.0 ],
		"bgcolor" : [ 0.0, 0.0, 0.0, 1.0 ],
		"bglocked" : 0,
		"openinpresentation" : 1,
		"default_fontsize" : 13.0,
		"default_fontface" : 0,
		"default_fontname" : "Avenir Book",
		"gridonopen" : 0,
		"gridsize" : [ 15.0, 15.0 ],
		"gridsnaponopen" : 0,
		"statusbarvisible" : 0,
		"toolbarvisible" : 1,
		"boxanimatetime" : 200,
		"imprint" : 0,
		"enablehscroll" : 0,
		"enablevscroll" : 0,
		"devicewidth" : 0.0,
		"description" : "",
		"digest" : "",
		"tags" : "",
		"boxes" : [ 			{
				"box" : 				{
					"fontname" : "Avenir Book",
					"fontsize" : 13.0,
					"id" : "obj-73",
					"maxclass" : "newobj",
					"numinlets" : 1,
					"numoutlets" : 0,
					"patching_rect" : [ 148.5, 840.0, 98.0, 24.0 ],
					"text" : "s #0-gran-rev-2"
				}

			}
, 			{
				"box" : 				{
					"fontname" : "Avenir Book",
					"fontsize" : 13.0,
					"id" : "obj-74",
					"maxclass" : "newobj",
					"numinlets" : 1,
					"numoutlets" : 0,
					"patching_rect" : [ 57.0, 870.0, 98.0, 24.0 ],
					"text" : "s #0-gran-rev-1"
				}

			}
, 			{
				"box" : 				{
					"fontname" : "Avenir Book",
					"fontsize" : 13.0,
					"id" : "obj-75",
					"maxclass" : "newobj",
					"numinlets" : 1,
					"numoutlets" : 0,
					"patching_rect" : [ 240.0, 810.0, 124.0, 24.0 ],
					"text" : "s #0-real-gran-rev-1"
				}

			}
, 			{
				"box" : 				{
					"fontname" : "Avenir Book",
					"fontsize" : 13.0,
					"id" : "obj-72",
					"maxclass" : "newobj",
					"numinlets" : 1,
					"numoutlets" : 0,
					"patching_rect" : [ 156.5, 780.0, 98.0, 24.0 ],
					"text" : "s #0-main-level"
				}

			}
, 			{
				"box" : 				{
					"fontname" : "Avenir Book",
					"fontsize" : 13.0,
					"id" : "obj-71",
					"maxclass" : "newobj",
					"numinlets" : 1,
					"numoutlets" : 0,
					"patching_rect" : [ 63.5, 780.0, 85.0, 24.0 ],
					"text" : "s #0-bit-level"
				}

			}
, 			{
				"box" : 				{
					"fontname" : "Avenir Book",
					"fontsize" : 13.0,
					"id" : "obj-68",
					"maxclass" : "newobj",
					"numinlets" : 0,
					"numoutlets" : 1,
					"outlettype" : [ "" ],
					"patching_rect" : [ 554.0, 45.0, 92.0, 24.0 ],
					"text" : "r #0-encode-1"
				}

			}
, 			{
				"box" : 				{
					"fontname" : "Avenir Book",
					"fontsize" : 13.0,
					"id" : "obj-69",
					"maxclass" : "newobj",
					"numinlets" : 0,
					"numoutlets" : 1,
					"outlettype" : [ "" ],
					"patching_rect" : [ 363.0, 45.0, 89.0, 24.0 ],
					"text" : "r #0-reverb-in"
				}

			}
, 			{
				"box" : 				{
					"fontname" : "Avenir Book",
					"fontsize" : 13.0,
					"id" : "obj-70",
					"maxclass" : "newobj",
					"numinlets" : 0,
					"numoutlets" : 1,
					"outlettype" : [ "" ],
					"patching_rect" : [ 160.0, 45.0, 92.0, 24.0 ],
					"text" : "r #0-real-grain"
				}

			}
, 			{
				"box" : 				{
					"fontname" : "Avenir Book",
					"fontsize" : 13.0,
					"id" : "obj-67",
					"maxclass" : "newobj",
					"numinlets" : 1,
					"numoutlets" : 0,
					"patching_rect" : [ 204.5, 705.0, 94.0, 24.0 ],
					"text" : "s #0-encode-1"
				}

			}
, 			{
				"box" : 				{
					"fontname" : "Avenir Book",
					"fontsize" : 13.0,
					"id" : "obj-66",
					"maxclass" : "newobj",
					"numinlets" : 1,
					"numoutlets" : 0,
					"patching_rect" : [ 133.5, 726.0, 90.0, 24.0 ],
					"text" : "s #0-reverb-in"
				}

			}
, 			{
				"box" : 				{
					"fontname" : "Avenir Book",
					"fontsize" : 13.0,
					"id" : "obj-65",
					"maxclass" : "newobj",
					"numinlets" : 1,
					"numoutlets" : 0,
					"patching_rect" : [ 63.5, 750.0, 93.0, 24.0 ],
					"text" : "s #0-real-grain"
				}

			}
, 			{
				"box" : 				{
					"clip_size" : 1,
					"display_range" : [ -45.0, 6.0 ],
					"id" : "obj-61",
					"maxclass" : "live.meter~",
					"numinlets" : 1,
					"numoutlets" : 1,
					"orientation" : 1,
					"outlettype" : [ "list" ],
					"patching_rect" : [ 734.5, 600.0, 100.0, 5.0 ],
					"presentation" : 1,
					"presentation_rect" : [ 26.0, 151.0, 100.0, 5.0 ]
				}

			}
, 			{
				"box" : 				{
					"fontname" : "Avenir Book",
					"fontsize" : 13.0,
					"id" : "obj-62",
					"maxclass" : "newobj",
					"numinlets" : 1,
					"numoutlets" : 1,
					"outlettype" : [ "signal" ],
					"patching_rect" : [ 734.5, 555.0, 135.0, 24.0 ],
					"text" : "receive~ main-level-4"
				}

			}
, 			{
				"box" : 				{
					"clip_size" : 1,
					"display_range" : [ -45.0, 6.0 ],
					"id" : "obj-59",
					"maxclass" : "live.meter~",
					"numinlets" : 1,
					"numoutlets" : 1,
					"orientation" : 1,
					"outlettype" : [ "list" ],
					"patching_rect" : [ 734.5, 525.0, 100.0, 5.0 ],
					"presentation" : 1,
					"presentation_rect" : [ 26.0, 143.0, 100.0, 5.0 ]
				}

			}
, 			{
				"box" : 				{
					"fontname" : "Avenir Book",
					"fontsize" : 13.0,
					"id" : "obj-60",
					"maxclass" : "newobj",
					"numinlets" : 1,
					"numoutlets" : 1,
					"outlettype" : [ "signal" ],
					"patching_rect" : [ 734.5, 465.0, 135.0, 24.0 ],
					"text" : "receive~ main-level-3"
				}

			}
, 			{
				"box" : 				{
					"clip_size" : 1,
					"display_range" : [ -45.0, 6.0 ],
					"id" : "obj-58",
					"maxclass" : "live.meter~",
					"numinlets" : 1,
					"numoutlets" : 1,
					"orientation" : 1,
					"outlettype" : [ "list" ],
					"patching_rect" : [ 585.0, 600.0, 100.0, 5.0 ],
					"presentation" : 1,
					"presentation_rect" : [ 26.0, 134.5, 100.0, 5.0 ]
				}

			}
, 			{
				"box" : 				{
					"fontname" : "Avenir Book",
					"fontsize" : 13.0,
					"id" : "obj-57",
					"maxclass" : "newobj",
					"numinlets" : 1,
					"numoutlets" : 1,
					"outlettype" : [ "signal" ],
					"patching_rect" : [ 585.0, 555.0, 135.0, 24.0 ],
					"text" : "receive~ main-level-2"
				}

			}
, 			{
				"box" : 				{
					"clip_size" : 1,
					"display_range" : [ -45.0, 6.0 ],
					"id" : "obj-56",
					"maxclass" : "live.meter~",
					"numinlets" : 1,
					"numoutlets" : 1,
					"orientation" : 1,
					"outlettype" : [ "list" ],
					"patching_rect" : [ 585.0, 660.0, 100.0, 5.0 ],
					"presentation" : 1,
					"presentation_rect" : [ 149.5, 127.0, 100.0, 5.0 ]
				}

			}
, 			{
				"box" : 				{
					"fontname" : "Avenir Book",
					"fontsize" : 13.0,
					"id" : "obj-44",
					"maxclass" : "newobj",
					"numinlets" : 1,
					"numoutlets" : 1,
					"outlettype" : [ "signal" ],
					"patching_rect" : [ 585.0, 630.0, 111.0, 24.0 ],
					"text" : "receive~ bit-level"
				}

			}
, 			{
				"box" : 				{
					"fontname" : "Avenir Book",
					"fontsize" : 13.0,
					"id" : "obj-38",
					"maxclass" : "newobj",
					"numinlets" : 1,
					"numoutlets" : 1,
					"outlettype" : [ "signal" ],
					"patching_rect" : [ 585.0, 465.0, 135.0, 24.0 ],
					"text" : "receive~ main-level-1"
				}

			}
, 			{
				"box" : 				{
					"clip_size" : 1,
					"display_range" : [ -45.0, 6.0 ],
					"id" : "obj-35",
					"maxclass" : "live.meter~",
					"numinlets" : 1,
					"numoutlets" : 1,
					"orientation" : 1,
					"outlettype" : [ "list" ],
					"patching_rect" : [ 585.0, 527.5, 100.0, 5.0 ],
					"presentation" : 1,
					"presentation_rect" : [ 26.0, 127.0, 100.0, 5.0 ]
				}

			}
, 			{
				"box" : 				{
					"clip_size" : 1,
					"display_range" : [ -45.0, 6.0 ],
					"id" : "obj-32",
					"maxclass" : "live.meter~",
					"numinlets" : 1,
					"numoutlets" : 1,
					"orientation" : 1,
					"outlettype" : [ "list" ],
					"patching_rect" : [ 437.5, 239.0, 100.0, 5.0 ],
					"presentation" : 1,
					"presentation_rect" : [ 242.5, 62.0, 100.0, 5.0 ]
				}

			}
, 			{
				"box" : 				{
					"clip_size" : 1,
					"display_range" : [ -45.0, 6.0 ],
					"id" : "obj-30",
					"maxclass" : "live.meter~",
					"numinlets" : 1,
					"numoutlets" : 1,
					"orientation" : 1,
					"outlettype" : [ "list" ],
					"patching_rect" : [ 255.5, 239.0, 100.0, 5.0 ],
					"presentation" : 1,
					"presentation_rect" : [ 135.5, 62.0, 100.0, 5.0 ]
				}

			}
, 			{
				"box" : 				{
					"clip_size" : 1,
					"display_range" : [ -45.0, 6.0 ],
					"id" : "obj-3",
					"maxclass" : "live.meter~",
					"numinlets" : 1,
					"numoutlets" : 1,
					"orientation" : 1,
					"outlettype" : [ "list" ],
					"patching_rect" : [ 45.0, 239.0, 100.0, 5.0 ],
					"presentation" : 1,
					"presentation_rect" : [ 30.0, 62.0, 100.0, 5.0 ]
				}

			}
, 			{
				"box" : 				{
					"id" : "obj-49",
					"maxclass" : "button",
					"numinlets" : 1,
					"numoutlets" : 1,
					"outlettype" : [ "bang" ],
					"patching_rect" : [ 945.0, 518.0, 20.0, 20.0 ]
				}

			}
, 			{
				"box" : 				{
					"fontname" : "Avenir Book",
					"fontsize" : 13.0,
					"id" : "obj-40",
					"maxclass" : "newobj",
					"numinlets" : 1,
					"numoutlets" : 1,
					"outlettype" : [ "bang" ],
					"patching_rect" : [ 945.0, 480.0, 66.0, 24.0 ],
					"text" : "loadbang"
				}

			}
, 			{
				"box" : 				{
					"fontname" : "Avenir Book",
					"fontsize" : 13.0,
					"id" : "obj-31",
					"linecount" : 5,
					"maxclass" : "message",
					"numinlets" : 2,
					"numoutlets" : 1,
					"outlettype" : [ "" ],
					"patching_rect" : [ 945.0, 548.0, 82.0, 93.0 ],
					"text" : ";\rmic-gain 0;\rmic-rev 0;\rmic-ambi 0;\rbit-level 0;\r"
				}

			}
, 			{
				"box" : 				{
					"fontname" : "Avenir Book",
					"fontsize" : 13.0,
					"id" : "obj-53",
					"maxclass" : "newobj",
					"numinlets" : 0,
					"numoutlets" : 1,
					"outlettype" : [ "" ],
					"patching_rect" : [ 1199.0, 45.0, 78.0, 24.0 ],
					"text" : "r gran-rev-2"
				}

			}
, 			{
				"box" : 				{
					"fontname" : "Avenir Book",
					"fontsize" : 13.0,
					"id" : "obj-54",
					"maxclass" : "newobj",
					"numinlets" : 0,
					"numoutlets" : 1,
					"outlettype" : [ "" ],
					"patching_rect" : [ 1095.0, 45.0, 78.0, 24.0 ],
					"text" : "r gran-rev-1"
				}

			}
, 			{
				"box" : 				{
					"fontname" : "Avenir Book",
					"fontsize" : 13.0,
					"id" : "obj-55",
					"maxclass" : "newobj",
					"numinlets" : 0,
					"numoutlets" : 1,
					"outlettype" : [ "" ],
					"patching_rect" : [ 960.0, 45.0, 104.0, 24.0 ],
					"text" : "r real-gran-rev-1"
				}

			}
, 			{
				"box" : 				{
					"fontname" : "Avenir Book",
					"fontsize" : 13.0,
					"id" : "obj-52",
					"maxclass" : "newobj",
					"numinlets" : 2,
					"numoutlets" : 2,
					"outlettype" : [ "signal", "bang" ],
					"patching_rect" : [ 302.0, 127.0, 58.0, 24.0 ],
					"text" : "line~ 20"
				}

			}
, 			{
				"box" : 				{
					"fontname" : "Avenir Book",
					"fontsize" : 13.0,
					"id" : "obj-50",
					"maxclass" : "newobj",
					"numinlets" : 2,
					"numoutlets" : 2,
					"outlettype" : [ "signal", "bang" ],
					"patching_rect" : [ 92.0, 127.0, 58.0, 24.0 ],
					"text" : "line~ 20"
				}

			}
, 			{
				"box" : 				{
					"fontname" : "Avenir Book",
					"fontsize" : 13.0,
					"id" : "obj-25",
					"maxclass" : "newobj",
					"numinlets" : 0,
					"numoutlets" : 1,
					"outlettype" : [ "" ],
					"patching_rect" : [ 884.0, 45.0, 65.0, 24.0 ],
					"text" : "r bit-level"
				}

			}
, 			{
				"box" : 				{
					"fontname" : "Avenir Book",
					"fontsize" : 13.0,
					"id" : "obj-23",
					"maxclass" : "newobj",
					"numinlets" : 0,
					"numoutlets" : 1,
					"outlettype" : [ "" ],
					"patching_rect" : [ 780.0, 45.0, 78.0, 24.0 ],
					"text" : "r main-level"
				}

			}
, 			{
				"box" : 				{
					"fontname" : "Avenir Book",
					"fontsize" : 13.0,
					"id" : "obj-51",
					"maxclass" : "newobj",
					"numinlets" : 4,
					"numoutlets" : 0,
					"patching_rect" : [ 585.0, 330.0, 88.0, 24.0 ],
					"text" : "bgcolor 0 0 0"
				}

			}
, 			{
				"box" : 				{
					"fontname" : "Avenir Book",
					"fontsize" : 13.0,
					"frgb" : 0.0,
					"id" : "obj-45",
					"maxclass" : "comment",
					"numinlets" : 1,
					"numoutlets" : 0,
					"patching_rect" : [ 240.0, 585.0, 65.0, 24.0 ],
					"presentation" : 1,
					"presentation_rect" : [ 153.0, 159.0, 65.0, 24.0 ],
					"text" : "realtoRev",
					"textcolor" : [ 0.901961, 0.901961, 0.901961, 1.0 ]
				}

			}
, 			{
				"box" : 				{
					"activebgcolor" : [ 0.909804, 0.909804, 0.909804, 0.0 ],
					"fontface" : 0,
					"fontname" : "Avenir Book",
					"fontsize" : 13.0,
					"id" : "obj-46",
					"maxclass" : "live.numbox",
					"numinlets" : 1,
					"numoutlets" : 2,
					"outlettype" : [ "", "float" ],
					"parameter_enable" : 1,
					"patching_rect" : [ 240.0, 615.0, 55.0, 21.0 ],
					"presentation" : 1,
					"presentation_rect" : [ 153.0, 183.0, 55.0, 21.0 ],
					"saved_attribute_attributes" : 					{
						"valueof" : 						{
							"parameter_longname" : "live.numbox[8]",
							"parameter_shortname" : "live.numbox",
							"parameter_type" : 0,
							"parameter_mmax" : 1.0,
							"parameter_initial_enable" : 1,
							"parameter_initial" : [ 0.0 ],
							"parameter_unitstyle" : 1
						}

					}
,
					"textcolor" : [ 0.901961, 0.901961, 0.901961, 1.0 ],
					"varname" : "real-gran-to-rev"
				}

			}
, 			{
				"box" : 				{
					"fontname" : "Avenir Book",
					"fontsize" : 13.0,
					"id" : "obj-47",
					"maxclass" : "newobj",
					"numinlets" : 1,
					"numoutlets" : 0,
					"patching_rect" : [ 240.0, 645.0, 105.0, 24.0 ],
					"text" : "s real-gran-rev-1"
				}

			}
, 			{
				"box" : 				{
					"fontname" : "Avenir Book",
					"fontsize" : 13.0,
					"frgb" : 0.0,
					"id" : "obj-42",
					"maxclass" : "comment",
					"numinlets" : 1,
					"numoutlets" : 0,
					"patching_rect" : [ 148.5, 585.0, 65.0, 24.0 ],
					"presentation" : 1,
					"presentation_rect" : [ 87.0, 159.0, 65.0, 24.0 ],
					"text" : "twotoRev",
					"textcolor" : [ 0.901961, 0.901961, 0.901961, 1.0 ]
				}

			}
, 			{
				"box" : 				{
					"activebgcolor" : [ 0.909804, 0.909804, 0.909804, 0.0 ],
					"fontface" : 0,
					"fontname" : "Avenir Book",
					"fontsize" : 13.0,
					"id" : "obj-43",
					"maxclass" : "live.numbox",
					"numinlets" : 1,
					"numoutlets" : 2,
					"outlettype" : [ "", "float" ],
					"parameter_enable" : 1,
					"patching_rect" : [ 148.5, 615.0, 55.0, 21.0 ],
					"presentation" : 1,
					"presentation_rect" : [ 87.0, 183.0, 55.0, 21.0 ],
					"saved_attribute_attributes" : 					{
						"valueof" : 						{
							"parameter_longname" : "live.numbox[7]",
							"parameter_shortname" : "live.numbox",
							"parameter_type" : 0,
							"parameter_mmax" : 1.0,
							"parameter_initial_enable" : 1,
							"parameter_initial" : [ 0.0 ],
							"parameter_unitstyle" : 1
						}

					}
,
					"textcolor" : [ 0.901961, 0.901961, 0.901961, 1.0 ],
					"varname" : "gran2-to-rev"
				}

			}
, 			{
				"box" : 				{
					"fontname" : "Zapfino",
					"fontsize" : 14.0,
					"frgb" : 0.0,
					"id" : "obj-22",
					"maxclass" : "comment",
					"numinlets" : 1,
					"numoutlets" : 0,
					"patching_rect" : [ 360.0, 598.5, 160.0, 54.0 ],
					"presentation" : 1,
					"presentation_rect" : [ 360.0, 166.5, 160.0, 54.0 ],
					"text" : "grain paramenters",
					"textcolor" : [ 0.901961, 0.901961, 0.901961, 1.0 ]
				}

			}
, 			{
				"box" : 				{
					"fontname" : "Avenir Book",
					"fontsize" : 13.0,
					"frgb" : 0.0,
					"id" : "obj-21",
					"maxclass" : "comment",
					"numinlets" : 1,
					"numoutlets" : 0,
					"patching_rect" : [ 57.0, 585.0, 66.0, 24.0 ],
					"presentation" : 1,
					"presentation_rect" : [ 24.0, 159.0, 66.0, 24.0 ],
					"text" : "onetoRev",
					"textcolor" : [ 0.901961, 0.901961, 0.901961, 1.0 ]
				}

			}
, 			{
				"box" : 				{
					"activebgcolor" : [ 0.909804, 0.909804, 0.909804, 0.0 ],
					"fontface" : 0,
					"fontname" : "Avenir Book",
					"fontsize" : 13.0,
					"id" : "obj-12",
					"maxclass" : "live.numbox",
					"numinlets" : 1,
					"numoutlets" : 2,
					"outlettype" : [ "", "float" ],
					"parameter_enable" : 1,
					"patching_rect" : [ 57.0, 615.0, 55.0, 21.0 ],
					"presentation" : 1,
					"presentation_rect" : [ 24.0, 183.0, 55.0, 21.0 ],
					"saved_attribute_attributes" : 					{
						"valueof" : 						{
							"parameter_longname" : "live.numbox[6]",
							"parameter_shortname" : "live.numbox",
							"parameter_type" : 0,
							"parameter_mmax" : 1.0,
							"parameter_initial_enable" : 1,
							"parameter_initial" : [ 0.0 ],
							"parameter_unitstyle" : 1
						}

					}
,
					"textcolor" : [ 0.901961, 0.901961, 0.901961, 1.0 ],
					"varname" : "gran1-to-rev"
				}

			}
, 			{
				"box" : 				{
					"fontname" : "Avenir Book",
					"fontsize" : 13.0,
					"frgb" : 0.0,
					"id" : "obj-39",
					"maxclass" : "comment",
					"numinlets" : 1,
					"numoutlets" : 0,
					"patching_rect" : [ 63.5, 405.0, 106.0, 24.0 ],
					"presentation" : 1,
					"presentation_rect" : [ 133.5, 84.0, 87.0, 24.0 ],
					"text" : "Bitcrush level",
					"textcolor" : [ 0.901961, 0.901961, 0.901961, 1.0 ]
				}

			}
, 			{
				"box" : 				{
					"activebgcolor" : [ 0.909804, 0.909804, 0.909804, 0.0 ],
					"fontface" : 0,
					"fontname" : "Avenir Book",
					"fontsize" : 13.0,
					"id" : "obj-41",
					"maxclass" : "live.numbox",
					"numinlets" : 1,
					"numoutlets" : 2,
					"outlettype" : [ "", "float" ],
					"parameter_enable" : 1,
					"patching_rect" : [ 63.5, 435.0, 55.0, 21.0 ],
					"presentation" : 1,
					"presentation_rect" : [ 149.5, 106.0, 55.0, 21.0 ],
					"saved_attribute_attributes" : 					{
						"valueof" : 						{
							"parameter_longname" : "live.numbox[5]",
							"parameter_shortname" : "live.numbox",
							"parameter_type" : 0,
							"parameter_mmax" : 1.0,
							"parameter_initial_enable" : 1,
							"parameter_initial" : [ 0.0 ],
							"parameter_unitstyle" : 1
						}

					}
,
					"textcolor" : [ 0.901961, 0.901961, 0.901961, 1.0 ],
					"varname" : "bit-level"
				}

			}
, 			{
				"box" : 				{
					"fontname" : "Zapfino",
					"fontsize" : 14.0,
					"frgb" : 0.0,
					"id" : "obj-37",
					"linecount" : 2,
					"maxclass" : "comment",
					"numinlets" : 1,
					"numoutlets" : 0,
					"patching_rect" : [ 360.0, 418.5, 191.0, 101.0 ],
					"presentation" : 1,
					"presentation_rect" : [ 254.0, 106.0, 266.0, 54.0 ],
					"text" : "main & bitcrushing parameters",
					"textcolor" : [ 0.901961, 0.901961, 0.901961, 1.0 ]
				}

			}
, 			{
				"box" : 				{
					"fontname" : "Avenir Book",
					"fontsize" : 13.0,
					"frgb" : 0.0,
					"id" : "obj-34",
					"maxclass" : "comment",
					"numinlets" : 1,
					"numoutlets" : 0,
					"patching_rect" : [ 61.0, 495.0, 70.0, 24.0 ],
					"presentation" : 1,
					"presentation_rect" : [ 26.5, 84.0, 70.0, 24.0 ],
					"text" : "Main level",
					"textcolor" : [ 0.901961, 0.901961, 0.901961, 1.0 ]
				}

			}
, 			{
				"box" : 				{
					"activebgcolor" : [ 0.909804, 0.909804, 0.909804, 0.0 ],
					"fontface" : 0,
					"fontname" : "Avenir Book",
					"fontsize" : 13.0,
					"id" : "obj-36",
					"maxclass" : "live.numbox",
					"numinlets" : 1,
					"numoutlets" : 2,
					"outlettype" : [ "", "float" ],
					"parameter_enable" : 1,
					"patching_rect" : [ 61.0, 525.0, 55.0, 21.0 ],
					"presentation" : 1,
					"presentation_rect" : [ 26.5, 106.0, 55.0, 21.0 ],
					"saved_attribute_attributes" : 					{
						"valueof" : 						{
							"parameter_longname" : "live.numbox[4]",
							"parameter_shortname" : "live.numbox",
							"parameter_type" : 0,
							"parameter_mmax" : 1.0,
							"parameter_initial_enable" : 1,
							"parameter_initial" : [ 1.0 ],
							"parameter_unitstyle" : 1
						}

					}
,
					"textcolor" : [ 0.901961, 0.901961, 0.901961, 1.0 ],
					"varname" : "main-volume"
				}

			}
, 			{
				"box" : 				{
					"fontname" : "Zapfino",
					"fontsize" : 14.0,
					"frgb" : 0.0,
					"id" : "obj-33",
					"maxclass" : "comment",
					"numinlets" : 1,
					"numoutlets" : 0,
					"patching_rect" : [ 360.0, 328.5, 139.0, 54.0 ],
					"presentation" : 1,
					"presentation_rect" : [ 381.0, 28.5, 139.0, 54.0 ],
					"text" : "mic parameters",
					"textcolor" : [ 0.901961, 0.901961, 0.901961, 1.0 ]
				}

			}
, 			{
				"box" : 				{
					"fontname" : "Avenir Book",
					"fontsize" : 13.0,
					"frgb" : 0.0,
					"id" : "obj-29",
					"maxclass" : "comment",
					"numinlets" : 1,
					"numoutlets" : 0,
					"patching_rect" : [ 203.5, 315.0, 57.0, 24.0 ],
					"presentation" : 1,
					"presentation_rect" : [ 241.5, 22.0, 57.0, 24.0 ],
					"text" : "to Ambi",
					"textcolor" : [ 0.901961, 0.901961, 0.901961, 1.0 ]
				}

			}
, 			{
				"box" : 				{
					"fontname" : "Avenir Book",
					"fontsize" : 13.0,
					"frgb" : 0.0,
					"id" : "obj-28",
					"maxclass" : "comment",
					"numinlets" : 1,
					"numoutlets" : 0,
					"patching_rect" : [ 133.5, 315.0, 47.0, 24.0 ],
					"presentation" : 1,
					"presentation_rect" : [ 139.5, 22.0, 47.0, 24.0 ],
					"text" : "to Rev",
					"textcolor" : [ 0.901961, 0.901961, 0.901961, 1.0 ]
				}

			}
, 			{
				"box" : 				{
					"fontname" : "Avenir Book",
					"fontsize" : 13.0,
					"frgb" : 0.0,
					"id" : "obj-27",
					"maxclass" : "comment",
					"numinlets" : 1,
					"numoutlets" : 0,
					"patching_rect" : [ 63.5, 315.0, 62.0, 24.0 ],
					"presentation" : 1,
					"presentation_rect" : [ 26.5, 22.0, 62.0, 24.0 ],
					"text" : "to Grain",
					"textcolor" : [ 0.901961, 0.901961, 0.901961, 1.0 ]
				}

			}
, 			{
				"box" : 				{
					"activebgcolor" : [ 0.909804, 0.909804, 0.909804, 0.0 ],
					"fontface" : 0,
					"fontname" : "Avenir Book",
					"fontsize" : 13.0,
					"id" : "obj-26",
					"maxclass" : "live.numbox",
					"numinlets" : 1,
					"numoutlets" : 2,
					"outlettype" : [ "", "float" ],
					"parameter_enable" : 1,
					"patching_rect" : [ 204.5, 345.0, 55.0, 21.0 ],
					"presentation" : 1,
					"presentation_rect" : [ 241.5, 45.0, 55.0, 21.0 ],
					"saved_attribute_attributes" : 					{
						"valueof" : 						{
							"parameter_longname" : "live.numbox[2]",
							"parameter_shortname" : "live.numbox",
							"parameter_type" : 0,
							"parameter_mmax" : 5.0,
							"parameter_initial_enable" : 1,
							"parameter_initial" : [ 0.0 ],
							"parameter_unitstyle" : 1
						}

					}
,
					"textcolor" : [ 0.901961, 0.901961, 0.901961, 1.0 ],
					"varname" : "to-ambi"
				}

			}
, 			{
				"box" : 				{
					"activebgcolor" : [ 0.909804, 0.909804, 0.909804, 0.0 ],
					"fontface" : 0,
					"fontname" : "Avenir Book",
					"fontsize" : 13.0,
					"id" : "obj-24",
					"maxclass" : "live.numbox",
					"numinlets" : 1,
					"numoutlets" : 2,
					"outlettype" : [ "", "float" ],
					"parameter_enable" : 1,
					"patching_rect" : [ 133.5, 345.0, 55.0, 21.0 ],
					"presentation" : 1,
					"presentation_rect" : [ 135.5, 45.0, 55.0, 21.0 ],
					"saved_attribute_attributes" : 					{
						"valueof" : 						{
							"parameter_longname" : "live.numbox[1]",
							"parameter_shortname" : "live.numbox",
							"parameter_type" : 0,
							"parameter_mmax" : 5.0,
							"parameter_initial_enable" : 1,
							"parameter_initial" : [ 0.0 ],
							"parameter_unitstyle" : 1
						}

					}
,
					"textcolor" : [ 0.901961, 0.901961, 0.901961, 1.0 ],
					"varname" : "to-plate-reverb"
				}

			}
, 			{
				"box" : 				{
					"activebgcolor" : [ 0.909804, 0.909804, 0.909804, 0.0 ],
					"fontface" : 0,
					"fontname" : "Avenir Book",
					"fontsize" : 13.0,
					"id" : "obj-19",
					"maxclass" : "live.numbox",
					"numinlets" : 1,
					"numoutlets" : 2,
					"outlettype" : [ "", "float" ],
					"parameter_enable" : 1,
					"patching_rect" : [ 63.5, 345.0, 55.0, 21.0 ],
					"presentation" : 1,
					"presentation_rect" : [ 30.0, 45.0, 55.0, 21.0 ],
					"saved_attribute_attributes" : 					{
						"valueof" : 						{
							"parameter_longname" : "live.numbox",
							"parameter_shortname" : "live.numbox",
							"parameter_type" : 0,
							"parameter_mmax" : 5.0,
							"parameter_initial_enable" : 1,
							"parameter_initial" : [ 0.0 ],
							"parameter_unitstyle" : 1
						}

					}
,
					"textcolor" : [ 0.901961, 0.901961, 0.901961, 1.0 ],
					"varname" : "to-real-gran"
				}

			}
, 			{
				"box" : 				{
					"fontname" : "Avenir Book",
					"fontsize" : 13.0,
					"id" : "obj-18",
					"maxclass" : "newobj",
					"numinlets" : 0,
					"numoutlets" : 1,
					"outlettype" : [ "" ],
					"patching_rect" : [ 482.0, 45.0, 72.0, 24.0 ],
					"text" : "r mic-ambi"
				}

			}
, 			{
				"box" : 				{
					"fontname" : "Avenir Book",
					"fontsize" : 13.0,
					"id" : "obj-17",
					"maxclass" : "newobj",
					"numinlets" : 0,
					"numoutlets" : 1,
					"outlettype" : [ "" ],
					"patching_rect" : [ 302.0, 45.0, 61.0, 24.0 ],
					"text" : "r mic-rev"
				}

			}
, 			{
				"box" : 				{
					"fontname" : "Avenir Book",
					"fontsize" : 13.0,
					"id" : "obj-16",
					"maxclass" : "newobj",
					"numinlets" : 0,
					"numoutlets" : 1,
					"outlettype" : [ "" ],
					"patching_rect" : [ 92.0, 45.0, 68.0, 24.0 ],
					"text" : "r mic-gain"
				}

			}
, 			{
				"box" : 				{
					"fontname" : "Avenir Book",
					"fontsize" : 13.0,
					"id" : "obj-15",
					"maxclass" : "flonum",
					"numinlets" : 1,
					"numoutlets" : 2,
					"outlettype" : [ "float", "bang" ],
					"parameter_enable" : 0,
					"patching_rect" : [ 482.0, 90.0, 50.0, 24.0 ]
				}

			}
, 			{
				"box" : 				{
					"fontname" : "Avenir Book",
					"fontsize" : 13.0,
					"id" : "obj-14",
					"maxclass" : "flonum",
					"numinlets" : 1,
					"numoutlets" : 2,
					"outlettype" : [ "float", "bang" ],
					"parameter_enable" : 0,
					"patching_rect" : [ 302.0, 90.0, 50.0, 24.0 ]
				}

			}
, 			{
				"box" : 				{
					"fontname" : "Avenir Book",
					"fontsize" : 13.0,
					"id" : "obj-13",
					"maxclass" : "flonum",
					"numinlets" : 1,
					"numoutlets" : 2,
					"outlettype" : [ "float", "bang" ],
					"parameter_enable" : 0,
					"patching_rect" : [ 92.0, 90.0, 50.0, 24.0 ]
				}

			}
, 			{
				"box" : 				{
					"fontname" : "Avenir Book",
					"fontsize" : 13.0,
					"id" : "obj-11",
					"maxclass" : "newobj",
					"numinlets" : 1,
					"numoutlets" : 0,
					"patching_rect" : [ 450.0, 225.0, 106.0, 24.0 ],
					"text" : "send~ encode-1"
				}

			}
, 			{
				"box" : 				{
					"fontname" : "Avenir Book",
					"fontsize" : 13.0,
					"frgb" : 0.0,
					"id" : "obj-10",
					"maxclass" : "comment",
					"numinlets" : 1,
					"numoutlets" : 0,
					"patching_rect" : [ 501.0, 180.0, 144.0, 24.0 ],
					"text" : "Ambisonic gain control"
				}

			}
, 			{
				"box" : 				{
					"fontname" : "Avenir Book",
					"fontsize" : 13.0,
					"id" : "obj-9",
					"maxclass" : "newobj",
					"numinlets" : 2,
					"numoutlets" : 1,
					"outlettype" : [ "signal" ],
					"patching_rect" : [ 450.0, 180.0, 51.0, 24.0 ],
					"text" : "*~"
				}

			}
, 			{
				"box" : 				{
					"fontname" : "Avenir Book",
					"fontsize" : 13.0,
					"id" : "obj-8",
					"maxclass" : "newobj",
					"numinlets" : 1,
					"numoutlets" : 0,
					"patching_rect" : [ 270.0, 225.0, 103.0, 24.0 ],
					"text" : "send~ reverb-in"
				}

			}
, 			{
				"box" : 				{
					"fontname" : "Avenir Book",
					"fontsize" : 13.0,
					"frgb" : 0.0,
					"id" : "obj-7",
					"maxclass" : "comment",
					"numinlets" : 1,
					"numoutlets" : 0,
					"patching_rect" : [ 321.0, 180.0, 127.0, 24.0 ],
					"text" : "Reverb send control"
				}

			}
, 			{
				"box" : 				{
					"fontname" : "Avenir Book",
					"fontsize" : 13.0,
					"id" : "obj-6",
					"maxclass" : "newobj",
					"numinlets" : 2,
					"numoutlets" : 1,
					"outlettype" : [ "signal" ],
					"patching_rect" : [ 270.0, 180.0, 51.0, 24.0 ],
					"text" : "*~"
				}

			}
, 			{
				"box" : 				{
					"fontname" : "Avenir Book",
					"fontsize" : 13.0,
					"id" : "obj-5",
					"maxclass" : "newobj",
					"numinlets" : 1,
					"numoutlets" : 0,
					"patching_rect" : [ 60.0, 225.0, 106.0, 24.0 ],
					"text" : "send~ real-grain"
				}

			}
, 			{
				"box" : 				{
					"fontname" : "Avenir Book",
					"fontsize" : 13.0,
					"frgb" : 0.0,
					"id" : "obj-4",
					"maxclass" : "comment",
					"numinlets" : 1,
					"numoutlets" : 0,
					"patching_rect" : [ 111.0, 180.0, 153.0, 24.0 ],
					"text" : "Microphone gain control"
				}

			}
, 			{
				"box" : 				{
					"fontname" : "Avenir Book",
					"fontsize" : 13.0,
					"id" : "obj-2",
					"maxclass" : "newobj",
					"numinlets" : 2,
					"numoutlets" : 1,
					"outlettype" : [ "signal" ],
					"patching_rect" : [ 60.0, 180.0, 51.0, 24.0 ],
					"text" : "*~"
				}

			}
, 			{
				"box" : 				{
					"fontname" : "Avenir Book",
					"fontsize" : 13.0,
					"id" : "obj-1",
					"maxclass" : "newobj",
					"numinlets" : 1,
					"numoutlets" : 1,
					"outlettype" : [ "signal" ],
					"patching_rect" : [ 60.0, 15.0, 51.0, 24.0 ],
					"text" : "adc~ 2"
				}

			}
, 			{
				"box" : 				{
					"alpha" : 0.7,
					"autofit" : 1,
					"id" : "obj-48",
					"maxclass" : "fpic",
					"numinlets" : 1,
					"numoutlets" : 0,
					"patching_rect" : [ 615.0, 255.0, 100.0, 50.0 ],
					"pic" : "main-abstract.jpg",
					"presentation" : 1,
					"presentation_rect" : [ -0.037201, 0.396683, 526.074402, 225.603317 ]
				}

			}
 ],
		"lines" : [ 			{
				"patchline" : 				{
					"destination" : [ "obj-2", 0 ],
					"disabled" : 0,
					"hidden" : 0,
					"source" : [ "obj-1", 0 ]
				}

			}
, 			{
				"patchline" : 				{
					"destination" : [ "obj-6", 0 ],
					"disabled" : 0,
					"hidden" : 0,
					"midpoints" : [ 69.5, 86.5, 279.5, 86.5 ],
					"source" : [ "obj-1", 0 ]
				}

			}
, 			{
				"patchline" : 				{
					"destination" : [ "obj-9", 0 ],
					"disabled" : 0,
					"hidden" : 0,
					"midpoints" : [ 69.5, 86.5, 459.5, 86.5 ],
					"source" : [ "obj-1", 0 ]
				}

			}
, 			{
				"patchline" : 				{
					"destination" : [ "obj-74", 0 ],
					"disabled" : 0,
					"hidden" : 0,
					"source" : [ "obj-12", 0 ]
				}

			}
, 			{
				"patchline" : 				{
					"destination" : [ "obj-19", 0 ],
					"disabled" : 0,
					"hidden" : 0,
					"source" : [ "obj-13", 0 ]
				}

			}
, 			{
				"patchline" : 				{
					"destination" : [ "obj-50", 0 ],
					"disabled" : 0,
					"hidden" : 0,
					"source" : [ "obj-13", 0 ]
				}

			}
, 			{
				"patchline" : 				{
					"destination" : [ "obj-24", 0 ],
					"disabled" : 0,
					"hidden" : 0,
					"midpoints" : [ 311.5, 258.5, 143.0, 258.5 ],
					"source" : [ "obj-14", 0 ]
				}

			}
, 			{
				"patchline" : 				{
					"destination" : [ "obj-52", 0 ],
					"disabled" : 0,
					"hidden" : 0,
					"source" : [ "obj-14", 0 ]
				}

			}
, 			{
				"patchline" : 				{
					"destination" : [ "obj-26", 0 ],
					"disabled" : 0,
					"hidden" : 0,
					"midpoints" : [ 491.5, 271.5, 214.0, 271.5 ],
					"source" : [ "obj-15", 0 ]
				}

			}
, 			{
				"patchline" : 				{
					"destination" : [ "obj-9", 1 ],
					"disabled" : 0,
					"hidden" : 0,
					"source" : [ "obj-15", 0 ]
				}

			}
, 			{
				"patchline" : 				{
					"destination" : [ "obj-13", 0 ],
					"disabled" : 0,
					"hidden" : 0,
					"source" : [ "obj-16", 0 ]
				}

			}
, 			{
				"patchline" : 				{
					"destination" : [ "obj-14", 0 ],
					"disabled" : 0,
					"hidden" : 0,
					"source" : [ "obj-17", 0 ]
				}

			}
, 			{
				"patchline" : 				{
					"destination" : [ "obj-15", 0 ],
					"disabled" : 0,
					"hidden" : 0,
					"source" : [ "obj-18", 0 ]
				}

			}
, 			{
				"patchline" : 				{
					"destination" : [ "obj-65", 0 ],
					"disabled" : 0,
					"hidden" : 0,
					"source" : [ "obj-19", 0 ]
				}

			}
, 			{
				"patchline" : 				{
					"destination" : [ "obj-3", 0 ],
					"disabled" : 0,
					"hidden" : 0,
					"source" : [ "obj-2", 0 ]
				}

			}
, 			{
				"patchline" : 				{
					"destination" : [ "obj-5", 0 ],
					"disabled" : 0,
					"hidden" : 0,
					"source" : [ "obj-2", 0 ]
				}

			}
, 			{
				"patchline" : 				{
					"destination" : [ "obj-36", 0 ],
					"disabled" : 0,
					"hidden" : 0,
					"midpoints" : [ 789.5, 274.0, 70.5, 274.0 ],
					"source" : [ "obj-23", 0 ]
				}

			}
, 			{
				"patchline" : 				{
					"destination" : [ "obj-66", 0 ],
					"disabled" : 0,
					"hidden" : 0,
					"source" : [ "obj-24", 0 ]
				}

			}
, 			{
				"patchline" : 				{
					"destination" : [ "obj-41", 0 ],
					"disabled" : 0,
					"hidden" : 0,
					"midpoints" : [ 893.5, 213.0, 73.0, 213.0 ],
					"source" : [ "obj-25", 0 ]
				}

			}
, 			{
				"patchline" : 				{
					"destination" : [ "obj-67", 0 ],
					"disabled" : 0,
					"hidden" : 0,
					"source" : [ "obj-26", 0 ]
				}

			}
, 			{
				"patchline" : 				{
					"destination" : [ "obj-72", 0 ],
					"disabled" : 0,
					"hidden" : 0,
					"source" : [ "obj-36", 0 ]
				}

			}
, 			{
				"patchline" : 				{
					"destination" : [ "obj-35", 0 ],
					"disabled" : 0,
					"hidden" : 0,
					"source" : [ "obj-38", 0 ]
				}

			}
, 			{
				"patchline" : 				{
					"destination" : [ "obj-49", 0 ],
					"disabled" : 0,
					"hidden" : 0,
					"source" : [ "obj-40", 0 ]
				}

			}
, 			{
				"patchline" : 				{
					"destination" : [ "obj-71", 0 ],
					"disabled" : 0,
					"hidden" : 0,
					"source" : [ "obj-41", 0 ]
				}

			}
, 			{
				"patchline" : 				{
					"destination" : [ "obj-73", 0 ],
					"disabled" : 0,
					"hidden" : 0,
					"source" : [ "obj-43", 0 ]
				}

			}
, 			{
				"patchline" : 				{
					"destination" : [ "obj-56", 0 ],
					"disabled" : 0,
					"hidden" : 0,
					"source" : [ "obj-44", 0 ]
				}

			}
, 			{
				"patchline" : 				{
					"destination" : [ "obj-47", 0 ],
					"disabled" : 0,
					"hidden" : 0,
					"source" : [ "obj-46", 0 ]
				}

			}
, 			{
				"patchline" : 				{
					"destination" : [ "obj-75", 0 ],
					"disabled" : 0,
					"hidden" : 0,
					"source" : [ "obj-46", 0 ]
				}

			}
, 			{
				"patchline" : 				{
					"destination" : [ "obj-31", 0 ],
					"disabled" : 0,
					"hidden" : 0,
					"source" : [ "obj-49", 0 ]
				}

			}
, 			{
				"patchline" : 				{
					"destination" : [ "obj-2", 1 ],
					"disabled" : 0,
					"hidden" : 0,
					"source" : [ "obj-50", 0 ]
				}

			}
, 			{
				"patchline" : 				{
					"destination" : [ "obj-6", 1 ],
					"disabled" : 0,
					"hidden" : 0,
					"source" : [ "obj-52", 0 ]
				}

			}
, 			{
				"patchline" : 				{
					"destination" : [ "obj-43", 0 ],
					"disabled" : 0,
					"hidden" : 0,
					"midpoints" : [ 1208.5, 395.5, 158.0, 395.5 ],
					"source" : [ "obj-53", 0 ]
				}

			}
, 			{
				"patchline" : 				{
					"destination" : [ "obj-12", 0 ],
					"disabled" : 0,
					"hidden" : 0,
					"midpoints" : [ 1104.5, 380.5, 66.5, 380.5 ],
					"source" : [ "obj-54", 0 ]
				}

			}
, 			{
				"patchline" : 				{
					"destination" : [ "obj-46", 0 ],
					"disabled" : 0,
					"hidden" : 0,
					"midpoints" : [ 969.5, 389.5, 249.5, 389.5 ],
					"source" : [ "obj-55", 0 ]
				}

			}
, 			{
				"patchline" : 				{
					"destination" : [ "obj-58", 0 ],
					"disabled" : 0,
					"hidden" : 0,
					"source" : [ "obj-57", 0 ]
				}

			}
, 			{
				"patchline" : 				{
					"destination" : [ "obj-30", 0 ],
					"disabled" : 0,
					"hidden" : 0,
					"source" : [ "obj-6", 0 ]
				}

			}
, 			{
				"patchline" : 				{
					"destination" : [ "obj-8", 0 ],
					"disabled" : 0,
					"hidden" : 0,
					"source" : [ "obj-6", 0 ]
				}

			}
, 			{
				"patchline" : 				{
					"destination" : [ "obj-59", 0 ],
					"disabled" : 0,
					"hidden" : 0,
					"source" : [ "obj-60", 0 ]
				}

			}
, 			{
				"patchline" : 				{
					"destination" : [ "obj-61", 0 ],
					"disabled" : 0,
					"hidden" : 0,
					"source" : [ "obj-62", 0 ]
				}

			}
, 			{
				"patchline" : 				{
					"destination" : [ "obj-15", 0 ],
					"disabled" : 0,
					"hidden" : 0,
					"source" : [ "obj-68", 0 ]
				}

			}
, 			{
				"patchline" : 				{
					"destination" : [ "obj-14", 0 ],
					"disabled" : 0,
					"hidden" : 0,
					"source" : [ "obj-69", 0 ]
				}

			}
, 			{
				"patchline" : 				{
					"destination" : [ "obj-13", 0 ],
					"disabled" : 0,
					"hidden" : 0,
					"source" : [ "obj-70", 0 ]
				}

			}
, 			{
				"patchline" : 				{
					"destination" : [ "obj-11", 0 ],
					"disabled" : 0,
					"hidden" : 0,
					"source" : [ "obj-9", 0 ]
				}

			}
, 			{
				"patchline" : 				{
					"destination" : [ "obj-32", 0 ],
					"disabled" : 0,
					"hidden" : 0,
					"source" : [ "obj-9", 0 ]
				}

			}
 ],
		"parameters" : 		{
			"obj-43" : [ "live.numbox[7]", "live.numbox", 0 ],
			"obj-12" : [ "live.numbox[6]", "live.numbox", 0 ],
			"obj-41" : [ "live.numbox[5]", "live.numbox", 0 ],
			"obj-46" : [ "live.numbox[8]", "live.numbox", 0 ],
			"obj-24" : [ "live.numbox[1]", "live.numbox", 0 ],
			"obj-19" : [ "live.numbox", "live.numbox", 0 ],
			"obj-26" : [ "live.numbox[2]", "live.numbox", 0 ],
			"obj-36" : [ "live.numbox[4]", "live.numbox", 0 ]
		}
,
		"dependency_cache" : [ 			{
				"name" : "main-abstract.jpg",
				"bootpath" : "/Users/Boggiz/Dropbox/Mattia/La differenza tra un punto e un abisso (2014)/concert/media",
				"patcherrelativepath" : "../media",
				"type" : "JPEG",
				"implicit" : 1
			}
 ]
	}

}
