{
	"patcher" : 	{
		"fileversion" : 1,
		"appversion" : 		{
			"major" : 6,
			"minor" : 0,
			"revision" : 8
		}
,
		"rect" : [ 843.0, 44.0, 472.0, 818.0 ],
		"bglocked" : 0,
		"openinpresentation" : 0,
		"default_fontsize" : 14.0,
		"default_fontface" : 0,
		"default_fontname" : "Adobe Devanagari",
		"gridonopen" : 0,
		"gridsize" : [ 15.0, 15.0 ],
		"gridsnaponopen" : 0,
		"statusbarvisible" : 2,
		"toolbarvisible" : 1,
		"boxanimatetime" : 200,
		"imprint" : 0,
		"enablehscroll" : 1,
		"enablevscroll" : 1,
		"devicewidth" : 0.0,
		"description" : "",
		"digest" : "",
		"tags" : "",
		"boxes" : [ 			{
				"box" : 				{
					"fontface" : 2,
					"fontname" : "Adobe Devanagari",
					"fontsize" : 16.0,
					"id" : "obj-29",
					"linecount" : 7,
					"maxclass" : "message",
					"numinlets" : 2,
					"numoutlets" : 1,
					"outlettype" : [ "" ],
					"patching_rect" : [ 255.0, 441.0, 143.0, 120.0 ],
					"text" : ";\r4-tape-play 1;\r3-delay-trim -6;\r3-delay-time1 732;\r3-delay-time2 1157;\r3-delay-feedback1 0.4;\r3-delay-feedback2 0.55"
				}

			}
, 			{
				"box" : 				{
					"fontface" : 2,
					"fontname" : "Adobe Devanagari",
					"fontsize" : 16.0,
					"id" : "obj-26",
					"linecount" : 4,
					"maxclass" : "message",
					"numinlets" : 2,
					"numoutlets" : 1,
					"outlettype" : [ "" ],
					"patching_rect" : [ 15.0, 603.0, 161.0, 72.0 ],
					"text" : ";\r1-rm-freq 7000, 375 200;\r1-rm-balance 0.25;\r4-tape-filename 0;\r"
				}

			}
, 			{
				"box" : 				{
					"fontname" : "Adobe Devanagari",
					"fontsize" : 14.0,
					"id" : "obj-27",
					"maxclass" : "newobj",
					"numinlets" : 0,
					"numoutlets" : 1,
					"outlettype" : [ "" ],
					"patching_rect" : [ 15.0, 579.0, 54.0, 20.0 ],
					"text" : "r dsp-37"
				}

			}
, 			{
				"box" : 				{
					"fontface" : 2,
					"fontname" : "Adobe Devanagari",
					"fontsize" : 18.0,
					"id" : "obj-25",
					"linecount" : 2,
					"maxclass" : "message",
					"numinlets" : 2,
					"numoutlets" : 1,
					"outlettype" : [ "" ],
					"patching_rect" : [ 272.0, 360.0, 70.0, 45.0 ],
					"text" : ";\rto-ps 440"
				}

			}
, 			{
				"box" : 				{
					"fontname" : "Adobe Devanagari",
					"fontsize" : 14.0,
					"id" : "obj-19",
					"maxclass" : "newobj",
					"numinlets" : 0,
					"numoutlets" : 1,
					"outlettype" : [ "" ],
					"patching_rect" : [ 255.0, 255.0, 54.0, 20.0 ],
					"text" : "r dsp-39"
				}

			}
, 			{
				"box" : 				{
					"fontface" : 2,
					"fontname" : "Adobe Devanagari",
					"fontsize" : 16.0,
					"id" : "obj-20",
					"linecount" : 2,
					"maxclass" : "message",
					"numinlets" : 2,
					"numoutlets" : 1,
					"outlettype" : [ "" ],
					"patching_rect" : [ 255.0, 285.0, 87.0, 40.0 ],
					"text" : ";\r3-tape-loop 0"
				}

			}
, 			{
				"box" : 				{
					"fontname" : "Adobe Devanagari",
					"fontsize" : 14.0,
					"id" : "obj-9",
					"maxclass" : "newobj",
					"numinlets" : 0,
					"numoutlets" : 1,
					"outlettype" : [ "" ],
					"patching_rect" : [ 255.0, 135.0, 54.0, 20.0 ],
					"text" : "r dsp-38"
				}

			}
, 			{
				"box" : 				{
					"fontface" : 2,
					"fontname" : "Adobe Devanagari",
					"fontsize" : 16.0,
					"id" : "obj-16",
					"linecount" : 4,
					"maxclass" : "message",
					"numinlets" : 2,
					"numoutlets" : 1,
					"outlettype" : [ "" ],
					"patching_rect" : [ 255.0, 165.0, 143.0, 72.0 ],
					"text" : ";\r3-tape-speed 0.7;\r4-delay-feedback1 0.9;\r4-delay-feedback2 0.8"
				}

			}
, 			{
				"box" : 				{
					"fontface" : 2,
					"fontname" : "Adobe Devanagari",
					"fontsize" : 16.0,
					"id" : "obj-8",
					"linecount" : 4,
					"maxclass" : "message",
					"numinlets" : 2,
					"numoutlets" : 1,
					"outlettype" : [ "" ],
					"patching_rect" : [ 15.0, 489.0, 193.0, 72.0 ],
					"text" : ";\r1-rm-trim -3, -10 100 -6 5000;\r1-rm-freq 7, 7000 7000;\r1-rm-balance 0.69, 0.46 5000;\r"
				}

			}
, 			{
				"box" : 				{
					"fontname" : "Adobe Devanagari",
					"fontsize" : 14.0,
					"id" : "obj-5",
					"maxclass" : "newobj",
					"numinlets" : 0,
					"numoutlets" : 1,
					"outlettype" : [ "" ],
					"patching_rect" : [ 15.0, 465.0, 54.0, 20.0 ],
					"text" : "r dsp-36"
				}

			}
, 			{
				"box" : 				{
					"fontface" : 2,
					"fontname" : "Adobe Devanagari",
					"fontsize" : 18.0,
					"id" : "obj-4",
					"linecount" : 2,
					"maxclass" : "message",
					"numinlets" : 2,
					"numoutlets" : 1,
					"outlettype" : [ "" ],
					"patching_rect" : [ 15.0, 153.0, 70.0, 45.0 ],
					"text" : ";\rto-ps 439"
				}

			}
, 			{
				"box" : 				{
					"fontname" : "Adobe Devanagari",
					"fontsize" : 14.0,
					"id" : "obj-2",
					"maxclass" : "newobj",
					"numinlets" : 0,
					"numoutlets" : 1,
					"outlettype" : [ "" ],
					"patching_rect" : [ 15.0, 126.0, 54.0, 20.0 ],
					"text" : "r dsp-35"
				}

			}
, 			{
				"box" : 				{
					"bubblepoint" : 0.42,
					"bubbleside" : 0,
					"bubbletextmargin" : 4,
					"fontface" : 2,
					"fontname" : "Adobe Devanagari",
					"fontsize" : 20.0,
					"frgb" : 0.0,
					"id" : "obj-17",
					"maxclass" : "comment",
					"numinlets" : 1,
					"numoutlets" : 0,
					"patching_rect" : [ 282.0, 585.0, 89.0, 26.0 ],
					"text" : "to scene VI"
				}

			}
, 			{
				"box" : 				{
					"bubblepoint" : 0.42,
					"bubbleside" : 0,
					"bubbletextmargin" : 4,
					"fontface" : 2,
					"fontname" : "Adobe Devanagari",
					"fontsize" : 20.0,
					"frgb" : 0.0,
					"id" : "obj-15",
					"maxclass" : "comment",
					"numinlets" : 1,
					"numoutlets" : 0,
					"patching_rect" : [ 258.0, 87.0, 131.0, 26.0 ],
					"text" : "ELETTRONICA"
				}

			}
, 			{
				"box" : 				{
					"bubblepoint" : 0.42,
					"bubbleside" : 0,
					"bubbletextmargin" : 4,
					"fontface" : 2,
					"fontname" : "Adobe Devanagari",
					"fontsize" : 20.0,
					"frgb" : 0.0,
					"id" : "obj-14",
					"maxclass" : "comment",
					"numinlets" : 1,
					"numoutlets" : 0,
					"patching_rect" : [ 15.0, 87.0, 118.0, 26.0 ],
					"text" : "PIANOFORTE"
				}

			}
, 			{
				"box" : 				{
					"fontface" : 2,
					"fontname" : "Adobe Devanagari",
					"fontsize" : 16.0,
					"id" : "obj-7",
					"linecount" : 8,
					"maxclass" : "message",
					"numinlets" : 2,
					"numoutlets" : 1,
					"outlettype" : [ "" ],
					"patching_rect" : [ 24.0, 225.0, 143.0, 136.0 ],
					"text" : ";\r1-rm-freq 7;\r1-rm-balance 0.69;\r1-rm-trim -3;\r1-delay-time1 216;\r1-delay-time2 140;\r1-delay-feedback1 0.7;\r1-delay-feedback2 0.75"
				}

			}
, 			{
				"box" : 				{
					"fontface" : 2,
					"fontname" : "Adobe Devanagari",
					"fontsize" : 16.0,
					"id" : "obj-13",
					"linecount" : 9,
					"maxclass" : "message",
					"numinlets" : 2,
					"numoutlets" : 1,
					"outlettype" : [ "" ],
					"patching_rect" : [ 24.0, 690.0, 143.0, 152.0 ],
					"text" : ";\r3-tape-gate 1;\r3-tape-loop 1;\r3-tape-speed 0.5;\r4-delay-time1 432;\r4-delay-time2 340;\r4-delay-feedback1 0.6;\r4-delay-feedback2 0.7;\r3-tape-play 1"
				}

			}
, 			{
				"box" : 				{
					"fontface" : 2,
					"fontname" : "Adobe Devanagari",
					"fontsize" : 16.0,
					"id" : "obj-12",
					"linecount" : 3,
					"maxclass" : "message",
					"numinlets" : 2,
					"numoutlets" : 1,
					"outlettype" : [ "" ],
					"patching_rect" : [ 15.0, 376.0, 136.0, 56.0 ],
					"text" : ";\r1-recorder-buffer 2;\r1-recorder-stop 15000"
				}

			}
, 			{
				"box" : 				{
					"bubblepoint" : 0.42,
					"bubbleside" : 0,
					"bubbletextmargin" : 4,
					"fontface" : 2,
					"fontname" : "Adobe Devanagari",
					"fontsize" : 18.0,
					"frgb" : 0.0,
					"id" : "obj-10",
					"linecount" : 4,
					"maxclass" : "comment",
					"numinlets" : 1,
					"numoutlets" : 0,
					"patching_rect" : [ 135.0, 6.0, 186.0, 78.0 ],
					"text" : "SCENA V: dopo l'esplosione, minuscoli frammenti continuano a gravitare, sospesi nell'aria."
				}

			}
 ],
		"lines" : [ 			{
				"patchline" : 				{
					"destination" : [ "obj-20", 0 ],
					"disabled" : 0,
					"hidden" : 0,
					"source" : [ "obj-19", 0 ]
				}

			}
, 			{
				"patchline" : 				{
					"destination" : [ "obj-25", 0 ],
					"disabled" : 0,
					"hidden" : 0,
					"source" : [ "obj-19", 0 ]
				}

			}
, 			{
				"patchline" : 				{
					"destination" : [ "obj-29", 0 ],
					"disabled" : 0,
					"hidden" : 0,
					"source" : [ "obj-19", 0 ]
				}

			}
, 			{
				"patchline" : 				{
					"destination" : [ "obj-12", 0 ],
					"disabled" : 0,
					"hidden" : 0,
					"source" : [ "obj-2", 0 ]
				}

			}
, 			{
				"patchline" : 				{
					"destination" : [ "obj-4", 0 ],
					"disabled" : 0,
					"hidden" : 0,
					"source" : [ "obj-2", 0 ]
				}

			}
, 			{
				"patchline" : 				{
					"destination" : [ "obj-7", 0 ],
					"disabled" : 0,
					"hidden" : 0,
					"source" : [ "obj-2", 0 ]
				}

			}
, 			{
				"patchline" : 				{
					"destination" : [ "obj-13", 0 ],
					"disabled" : 0,
					"hidden" : 0,
					"source" : [ "obj-27", 0 ]
				}

			}
, 			{
				"patchline" : 				{
					"destination" : [ "obj-26", 0 ],
					"disabled" : 0,
					"hidden" : 0,
					"source" : [ "obj-27", 0 ]
				}

			}
, 			{
				"patchline" : 				{
					"destination" : [ "obj-8", 0 ],
					"disabled" : 0,
					"hidden" : 0,
					"source" : [ "obj-5", 0 ]
				}

			}
, 			{
				"patchline" : 				{
					"destination" : [ "obj-16", 0 ],
					"disabled" : 0,
					"hidden" : 0,
					"source" : [ "obj-9", 0 ]
				}

			}
 ]
	}

}
