{
	"patcher" : 	{
		"fileversion" : 1,
		"appversion" : 		{
			"major" : 6,
			"minor" : 0,
			"revision" : 8
		}
,
		"rect" : [ 751.0, 44.0, 523.0, 796.0 ],
		"bglocked" : 0,
		"openinpresentation" : 0,
		"default_fontsize" : 14.0,
		"default_fontface" : 0,
		"default_fontname" : "Adobe Devanagari",
		"gridonopen" : 0,
		"gridsize" : [ 15.0, 15.0 ],
		"gridsnaponopen" : 0,
		"statusbarvisible" : 2,
		"toolbarvisible" : 1,
		"boxanimatetime" : 200,
		"imprint" : 0,
		"enablehscroll" : 1,
		"enablevscroll" : 1,
		"devicewidth" : 0.0,
		"description" : "",
		"digest" : "",
		"tags" : "",
		"boxes" : [ 			{
				"box" : 				{
					"fontname" : "Adobe Devanagari",
					"fontsize" : 14.0,
					"id" : "obj-7",
					"maxclass" : "newobj",
					"numinlets" : 0,
					"numoutlets" : 1,
					"outlettype" : [ "" ],
					"patching_rect" : [ 277.0, 371.0, 48.0, 20.0 ],
					"text" : "r dsp-6"
				}

			}
, 			{
				"box" : 				{
					"fontface" : 2,
					"fontname" : "Adobe Devanagari",
					"fontsize" : 16.0,
					"id" : "obj-16",
					"linecount" : 7,
					"maxclass" : "message",
					"numinlets" : 2,
					"numoutlets" : 1,
					"outlettype" : [ "" ],
					"patching_rect" : [ 277.0, 401.0, 206.0, 120.0 ],
					"text" : ";\r2-tape-gate 1;\r2-tape-loop 1;\r2-tape-play 1;\r2-tape-speed 1, 0.869 20000;\r1-delay-time1 1400, 2700 10000;\r1-delay-time2 910, 2300 9000"
				}

			}
, 			{
				"box" : 				{
					"fontname" : "Adobe Devanagari",
					"fontsize" : 14.0,
					"id" : "obj-13",
					"maxclass" : "newobj",
					"numinlets" : 0,
					"numoutlets" : 1,
					"outlettype" : [ "" ],
					"patching_rect" : [ 277.0, 630.0, 48.0, 20.0 ],
					"text" : "r dsp-8"
				}

			}
, 			{
				"box" : 				{
					"fontface" : 2,
					"fontname" : "Adobe Devanagari",
					"fontsize" : 16.0,
					"id" : "obj-10",
					"linecount" : 2,
					"maxclass" : "message",
					"numinlets" : 2,
					"numoutlets" : 1,
					"outlettype" : [ "" ],
					"patching_rect" : [ 277.0, 660.0, 96.0, 40.0 ],
					"text" : ";\r2-tape-loop 0;\r"
				}

			}
, 			{
				"box" : 				{
					"fontname" : "Adobe Devanagari",
					"fontsize" : 14.0,
					"id" : "obj-22",
					"maxclass" : "newobj",
					"numinlets" : 0,
					"numoutlets" : 1,
					"outlettype" : [ "" ],
					"patching_rect" : [ 277.0, 525.0, 48.0, 20.0 ],
					"text" : "r dsp-7"
				}

			}
, 			{
				"box" : 				{
					"fontname" : "Adobe Devanagari",
					"fontsize" : 14.0,
					"id" : "obj-20",
					"maxclass" : "newobj",
					"numinlets" : 0,
					"numoutlets" : 1,
					"outlettype" : [ "" ],
					"patching_rect" : [ 277.0, 150.0, 48.0, 20.0 ],
					"text" : "r dsp-5"
				}

			}
, 			{
				"box" : 				{
					"fontname" : "Adobe Devanagari",
					"fontsize" : 14.0,
					"id" : "obj-18",
					"maxclass" : "newobj",
					"numinlets" : 0,
					"numoutlets" : 1,
					"outlettype" : [ "" ],
					"patching_rect" : [ 23.0, 581.0, 48.0, 20.0 ],
					"text" : "r dsp-4"
				}

			}
, 			{
				"box" : 				{
					"fontname" : "Adobe Devanagari",
					"fontsize" : 14.0,
					"id" : "obj-17",
					"maxclass" : "newobj",
					"numinlets" : 0,
					"numoutlets" : 1,
					"outlettype" : [ "" ],
					"patching_rect" : [ 23.0, 446.0, 48.0, 20.0 ],
					"text" : "r dsp-3"
				}

			}
, 			{
				"box" : 				{
					"fontname" : "Adobe Devanagari",
					"fontsize" : 14.0,
					"id" : "obj-12",
					"maxclass" : "newobj",
					"numinlets" : 0,
					"numoutlets" : 1,
					"outlettype" : [ "" ],
					"patching_rect" : [ 23.0, 244.0, 48.0, 20.0 ],
					"text" : "r dsp-2"
				}

			}
, 			{
				"box" : 				{
					"fontface" : 2,
					"fontname" : "Adobe Devanagari",
					"fontsize" : 18.0,
					"id" : "obj-11",
					"linecount" : 2,
					"maxclass" : "message",
					"numinlets" : 2,
					"numoutlets" : 1,
					"outlettype" : [ "" ],
					"patching_rect" : [ 23.0, 176.0, 71.0, 45.0 ],
					"text" : ";\rto-ps 432"
				}

			}
, 			{
				"box" : 				{
					"fontname" : "Adobe Devanagari",
					"fontsize" : 14.0,
					"id" : "obj-9",
					"maxclass" : "newobj",
					"numinlets" : 0,
					"numoutlets" : 1,
					"outlettype" : [ "" ],
					"patching_rect" : [ 23.0, 150.0, 48.0, 20.0 ],
					"text" : "r dsp-1"
				}

			}
, 			{
				"box" : 				{
					"bubblepoint" : 0.42,
					"bubbleside" : 0,
					"bubbletextmargin" : 4,
					"fontface" : 2,
					"fontname" : "Adobe Devanagari",
					"fontsize" : 20.0,
					"frgb" : 0.0,
					"id" : "obj-3",
					"maxclass" : "comment",
					"numinlets" : 1,
					"numoutlets" : 0,
					"patching_rect" : [ 338.5, 720.0, 83.0, 26.0 ],
					"text" : "to scene II"
				}

			}
, 			{
				"box" : 				{
					"bubblepoint" : 0.42,
					"bubbleside" : 0,
					"bubbletextmargin" : 4,
					"fontface" : 2,
					"fontname" : "Adobe Devanagari",
					"fontsize" : 20.0,
					"frgb" : 0.0,
					"id" : "obj-15",
					"maxclass" : "comment",
					"numinlets" : 1,
					"numoutlets" : 0,
					"patching_rect" : [ 277.0, 105.0, 131.0, 26.0 ],
					"text" : "ELETTRONICA"
				}

			}
, 			{
				"box" : 				{
					"bubblepoint" : 0.42,
					"bubbleside" : 0,
					"bubbletextmargin" : 4,
					"fontface" : 2,
					"fontname" : "Adobe Devanagari",
					"fontsize" : 20.0,
					"frgb" : 0.0,
					"id" : "obj-14",
					"maxclass" : "comment",
					"numinlets" : 1,
					"numoutlets" : 0,
					"patching_rect" : [ 23.0, 105.0, 118.0, 26.0 ],
					"text" : "PIANOFORTE"
				}

			}
, 			{
				"box" : 				{
					"fontface" : 2,
					"fontname" : "Adobe Devanagari",
					"fontsize" : 16.0,
					"id" : "obj-1",
					"linecount" : 4,
					"maxclass" : "message",
					"numinlets" : 2,
					"numoutlets" : 1,
					"outlettype" : [ "" ],
					"patching_rect" : [ 277.0, 550.0, 233.0, 72.0 ],
					"text" : ";\r1-rm-freq 240, 864 12000 2200 5000;\r3-delay-feedback1 0.9;\r3-delay-feedback2 0.95"
				}

			}
, 			{
				"box" : 				{
					"fontface" : 2,
					"fontname" : "Adobe Devanagari",
					"fontsize" : 16.0,
					"id" : "obj-8",
					"linecount" : 3,
					"maxclass" : "message",
					"numinlets" : 2,
					"numoutlets" : 1,
					"outlettype" : [ "" ],
					"patching_rect" : [ 23.0, 611.0, 120.0, 56.0 ],
					"text" : ";\r1-tape-gate 1;\r1-tape-speed 0.37;\r"
				}

			}
, 			{
				"box" : 				{
					"fontface" : 2,
					"fontname" : "Adobe Devanagari",
					"fontsize" : 16.0,
					"id" : "obj-6",
					"linecount" : 5,
					"maxclass" : "message",
					"numinlets" : 2,
					"numoutlets" : 1,
					"outlettype" : [ "" ],
					"patching_rect" : [ 23.0, 476.0, 150.0, 88.0 ],
					"text" : ";\r2-delay-time1 230;\r2-delay-time2 432;\r2-delay-feedback1 0.3;\r2-delay-feedback2 0.15;\r"
				}

			}
, 			{
				"box" : 				{
					"fontface" : 2,
					"fontname" : "Adobe Devanagari",
					"fontsize" : 16.0,
					"id" : "obj-5",
					"linecount" : 11,
					"maxclass" : "message",
					"numinlets" : 2,
					"numoutlets" : 1,
					"outlettype" : [ "" ],
					"patching_rect" : [ 277.0, 176.0, 207.0, 184.0 ],
					"text" : ";\r2-delay-stop bang;\r2-delay-reset bang;\r2-tape-out1 -20, 0 9000;\r2-tape-out2 -20, 0 9000;\r2-tape-play 1;\r1-delay-trim -6, 0 10000;\r1-delay-time1 0, 1400 12000;\r1-delay-time2 230, 910 7000;\r1-delay-feedback1 0.3, 0.7 7500;\r1-delay-feedback2 0.3, 0.8 10000;\r"
				}

			}
, 			{
				"box" : 				{
					"fontface" : 2,
					"fontname" : "Adobe Devanagari",
					"fontsize" : 16.0,
					"id" : "obj-4",
					"linecount" : 9,
					"maxclass" : "message",
					"numinlets" : 2,
					"numoutlets" : 1,
					"outlettype" : [ "" ],
					"patching_rect" : [ 23.0, 268.0, 144.0, 152.0 ],
					"text" : ";\r1-recorder-stop 20000;\r2-recorder-stop 20000;\r1-rm-freq 240;\r1-rm-balance 0.69;\r3-delay-time1 340;\r3-delay-time2 270;\r3-delay-feedback1 0.6;\r3-delay-feedback2 0.7"
				}

			}
, 			{
				"box" : 				{
					"bubblepoint" : 0.42,
					"bubbleside" : 0,
					"bubbletextmargin" : 4,
					"fontface" : 2,
					"fontname" : "Adobe Devanagari",
					"fontsize" : 18.0,
					"frgb" : 0.0,
					"id" : "obj-2",
					"linecount" : 4,
					"maxclass" : "comment",
					"numinlets" : 1,
					"numoutlets" : 0,
					"patching_rect" : [ 150.0, 15.0, 186.0, 78.0 ],
					"text" : "SCENA I: Il pianoforte presenta i primi due set di note. L'elettronica irrompe in scena."
				}

			}
 ],
		"lines" : [ 			{
				"patchline" : 				{
					"destination" : [ "obj-4", 0 ],
					"disabled" : 0,
					"hidden" : 0,
					"source" : [ "obj-12", 0 ]
				}

			}
, 			{
				"patchline" : 				{
					"destination" : [ "obj-10", 0 ],
					"disabled" : 0,
					"hidden" : 0,
					"source" : [ "obj-13", 0 ]
				}

			}
, 			{
				"patchline" : 				{
					"destination" : [ "obj-6", 0 ],
					"disabled" : 0,
					"hidden" : 0,
					"source" : [ "obj-17", 0 ]
				}

			}
, 			{
				"patchline" : 				{
					"destination" : [ "obj-8", 0 ],
					"disabled" : 0,
					"hidden" : 0,
					"source" : [ "obj-18", 0 ]
				}

			}
, 			{
				"patchline" : 				{
					"destination" : [ "obj-5", 0 ],
					"disabled" : 0,
					"hidden" : 0,
					"source" : [ "obj-20", 0 ]
				}

			}
, 			{
				"patchline" : 				{
					"destination" : [ "obj-1", 0 ],
					"disabled" : 0,
					"hidden" : 0,
					"source" : [ "obj-22", 0 ]
				}

			}
, 			{
				"patchline" : 				{
					"destination" : [ "obj-16", 0 ],
					"disabled" : 0,
					"hidden" : 0,
					"source" : [ "obj-7", 0 ]
				}

			}
, 			{
				"patchline" : 				{
					"destination" : [ "obj-11", 0 ],
					"disabled" : 0,
					"hidden" : 0,
					"source" : [ "obj-9", 0 ]
				}

			}
 ]
	}

}
