{
	"patcher" : 	{
		"fileversion" : 1,
		"appversion" : 		{
			"major" : 6,
			"minor" : 1,
			"revision" : 7,
			"architecture" : "x86"
		}
,
		"rect" : [ 974.0, 527.0, 464.0, 257.0 ],
		"bgcolor" : [ 0.0, 0.0, 0.0, 1.0 ],
		"bglocked" : 0,
		"openinpresentation" : 1,
		"default_fontsize" : 13.0,
		"default_fontface" : 0,
		"default_fontname" : "Avenir Book",
		"gridonopen" : 0,
		"gridsize" : [ 15.0, 15.0 ],
		"gridsnaponopen" : 0,
		"statusbarvisible" : 0,
		"toolbarvisible" : 1,
		"boxanimatetime" : 200,
		"imprint" : 0,
		"enablehscroll" : 1,
		"enablevscroll" : 1,
		"devicewidth" : 0.0,
		"description" : "",
		"digest" : "",
		"tags" : "",
		"boxes" : [ 			{
				"box" : 				{
					"fontname" : "Avenir Book",
					"fontsize" : 13.0,
					"id" : "obj-51",
					"maxclass" : "newobj",
					"numinlets" : 4,
					"numoutlets" : 0,
					"patching_rect" : [ 585.0, 285.0, 88.0, 24.0 ],
					"text" : "bgcolor 0 0 0"
				}

			}
, 			{
				"box" : 				{
					"fontname" : "Avenir Book",
					"fontsize" : 13.0,
					"frgb" : 0.0,
					"id" : "obj-45",
					"maxclass" : "comment",
					"numinlets" : 1,
					"numoutlets" : 0,
					"patching_rect" : [ 240.0, 540.0, 65.0, 24.0 ],
					"presentation" : 1,
					"presentation_rect" : [ 153.0, 195.0, 65.0, 24.0 ],
					"text" : "realtoRev",
					"textcolor" : [ 0.901961, 0.901961, 0.901961, 1.0 ]
				}

			}
, 			{
				"box" : 				{
					"activebgcolor" : [ 0.909804, 0.909804, 0.909804, 0.0 ],
					"fontface" : 0,
					"fontname" : "Avenir Book",
					"fontsize" : 13.0,
					"id" : "obj-46",
					"maxclass" : "live.numbox",
					"numinlets" : 1,
					"numoutlets" : 2,
					"outlettype" : [ "", "float" ],
					"parameter_enable" : 1,
					"patching_rect" : [ 240.0, 570.0, 55.0, 21.0 ],
					"presentation" : 1,
					"presentation_rect" : [ 158.0, 219.0, 55.0, 21.0 ],
					"saved_attribute_attributes" : 					{
						"valueof" : 						{
							"parameter_longname" : "live.numbox[8]",
							"parameter_shortname" : "live.numbox",
							"parameter_type" : 0,
							"parameter_mmax" : 1.0,
							"parameter_initial_enable" : 1,
							"parameter_initial" : [ 0.0 ],
							"parameter_unitstyle" : 1
						}

					}
,
					"textcolor" : [ 0.901961, 0.901961, 0.901961, 1.0 ],
					"varname" : "live.numbox[8]"
				}

			}
, 			{
				"box" : 				{
					"fontname" : "Avenir Book",
					"fontsize" : 13.0,
					"id" : "obj-47",
					"maxclass" : "newobj",
					"numinlets" : 1,
					"numoutlets" : 0,
					"patching_rect" : [ 240.0, 600.0, 105.0, 24.0 ],
					"text" : "s real-gran-rev-1"
				}

			}
, 			{
				"box" : 				{
					"fontname" : "Avenir Book",
					"fontsize" : 13.0,
					"frgb" : 0.0,
					"id" : "obj-42",
					"maxclass" : "comment",
					"numinlets" : 1,
					"numoutlets" : 0,
					"patching_rect" : [ 148.5, 540.0, 65.0, 24.0 ],
					"presentation" : 1,
					"presentation_rect" : [ 87.0, 195.0, 65.0, 24.0 ],
					"text" : "twotoRev",
					"textcolor" : [ 0.901961, 0.901961, 0.901961, 1.0 ]
				}

			}
, 			{
				"box" : 				{
					"activebgcolor" : [ 0.909804, 0.909804, 0.909804, 0.0 ],
					"fontface" : 0,
					"fontname" : "Avenir Book",
					"fontsize" : 13.0,
					"id" : "obj-43",
					"maxclass" : "live.numbox",
					"numinlets" : 1,
					"numoutlets" : 2,
					"outlettype" : [ "", "float" ],
					"parameter_enable" : 1,
					"patching_rect" : [ 148.5, 570.0, 55.0, 21.0 ],
					"presentation" : 1,
					"presentation_rect" : [ 92.0, 219.0, 55.0, 21.0 ],
					"saved_attribute_attributes" : 					{
						"valueof" : 						{
							"parameter_longname" : "live.numbox[7]",
							"parameter_shortname" : "live.numbox",
							"parameter_type" : 0,
							"parameter_mmax" : 1.0,
							"parameter_initial_enable" : 1,
							"parameter_initial" : [ 0.0 ],
							"parameter_unitstyle" : 1
						}

					}
,
					"textcolor" : [ 0.901961, 0.901961, 0.901961, 1.0 ],
					"varname" : "live.numbox[7]"
				}

			}
, 			{
				"box" : 				{
					"fontname" : "Avenir Book",
					"fontsize" : 13.0,
					"id" : "obj-44",
					"maxclass" : "newobj",
					"numinlets" : 1,
					"numoutlets" : 0,
					"patching_rect" : [ 148.5, 600.0, 79.0, 24.0 ],
					"text" : "s gran-rev-2"
				}

			}
, 			{
				"box" : 				{
					"fontname" : "Zapfino",
					"fontsize" : 14.0,
					"frgb" : 0.0,
					"id" : "obj-22",
					"maxclass" : "comment",
					"numinlets" : 1,
					"numoutlets" : 0,
					"patching_rect" : [ 391.0, 553.5, 160.0, 54.0 ],
					"presentation" : 1,
					"presentation_rect" : [ 253.0, 202.5, 160.0, 54.0 ],
					"text" : "Grain paramenters",
					"textcolor" : [ 0.901961, 0.901961, 0.901961, 1.0 ]
				}

			}
, 			{
				"box" : 				{
					"fontname" : "Avenir Book",
					"fontsize" : 13.0,
					"frgb" : 0.0,
					"id" : "obj-21",
					"maxclass" : "comment",
					"numinlets" : 1,
					"numoutlets" : 0,
					"patching_rect" : [ 57.0, 540.0, 66.0, 24.0 ],
					"presentation" : 1,
					"presentation_rect" : [ 24.0, 195.0, 66.0, 24.0 ],
					"text" : "onetoRev",
					"textcolor" : [ 0.901961, 0.901961, 0.901961, 1.0 ]
				}

			}
, 			{
				"box" : 				{
					"activebgcolor" : [ 0.909804, 0.909804, 0.909804, 0.0 ],
					"fontface" : 0,
					"fontname" : "Avenir Book",
					"fontsize" : 13.0,
					"id" : "obj-12",
					"maxclass" : "live.numbox",
					"numinlets" : 1,
					"numoutlets" : 2,
					"outlettype" : [ "", "float" ],
					"parameter_enable" : 1,
					"patching_rect" : [ 57.0, 570.0, 55.0, 21.0 ],
					"presentation" : 1,
					"presentation_rect" : [ 30.0, 219.0, 55.0, 21.0 ],
					"saved_attribute_attributes" : 					{
						"valueof" : 						{
							"parameter_longname" : "live.numbox[6]",
							"parameter_shortname" : "live.numbox",
							"parameter_type" : 0,
							"parameter_mmax" : 1.0,
							"parameter_initial_enable" : 1,
							"parameter_initial" : [ 0.0 ],
							"parameter_unitstyle" : 1
						}

					}
,
					"textcolor" : [ 0.901961, 0.901961, 0.901961, 1.0 ],
					"varname" : "live.numbox[6]"
				}

			}
, 			{
				"box" : 				{
					"fontname" : "Avenir Book",
					"fontsize" : 13.0,
					"id" : "obj-3",
					"maxclass" : "newobj",
					"numinlets" : 1,
					"numoutlets" : 0,
					"patching_rect" : [ 57.0, 600.0, 79.0, 24.0 ],
					"text" : "s gran-rev-1"
				}

			}
, 			{
				"box" : 				{
					"fontname" : "Avenir Book",
					"fontsize" : 13.0,
					"frgb" : 0.0,
					"id" : "obj-39",
					"maxclass" : "comment",
					"numinlets" : 1,
					"numoutlets" : 0,
					"patching_rect" : [ 170.5, 360.0, 106.0, 24.0 ],
					"presentation" : 1,
					"presentation_rect" : [ 133.5, 75.0, 87.0, 24.0 ],
					"text" : "Bitcrush level",
					"textcolor" : [ 0.901961, 0.901961, 0.901961, 1.0 ]
				}

			}
, 			{
				"box" : 				{
					"fontname" : "Avenir Book",
					"fontsize" : 13.0,
					"id" : "obj-40",
					"maxclass" : "newobj",
					"numinlets" : 1,
					"numoutlets" : 0,
					"patching_rect" : [ 170.5, 420.0, 66.0, 24.0 ],
					"text" : "s bit-level"
				}

			}
, 			{
				"box" : 				{
					"activebgcolor" : [ 0.909804, 0.909804, 0.909804, 0.0 ],
					"fontface" : 0,
					"fontname" : "Avenir Book",
					"fontsize" : 13.0,
					"id" : "obj-41",
					"maxclass" : "live.numbox",
					"numinlets" : 1,
					"numoutlets" : 2,
					"outlettype" : [ "", "float" ],
					"parameter_enable" : 1,
					"patching_rect" : [ 170.5, 390.0, 55.0, 21.0 ],
					"presentation" : 1,
					"presentation_rect" : [ 149.5, 97.0, 55.0, 21.0 ],
					"saved_attribute_attributes" : 					{
						"valueof" : 						{
							"parameter_longname" : "live.numbox[5]",
							"parameter_shortname" : "live.numbox",
							"parameter_type" : 0,
							"parameter_mmax" : 1.0,
							"parameter_initial_enable" : 1,
							"parameter_initial" : [ 0.0 ],
							"parameter_unitstyle" : 1
						}

					}
,
					"textcolor" : [ 0.901961, 0.901961, 0.901961, 1.0 ],
					"varname" : "live.numbox[5]"
				}

			}
, 			{
				"box" : 				{
					"fontname" : "Zapfino",
					"fontsize" : 14.0,
					"frgb" : 0.0,
					"id" : "obj-38",
					"maxclass" : "comment",
					"numinlets" : 1,
					"numoutlets" : 0,
					"patching_rect" : [ 391.0, 463.5, 151.0, 54.0 ],
					"presentation" : 1,
					"presentation_rect" : [ 253.0, 141.5, 151.0, 54.0 ],
					"text" : "Main parameters",
					"textcolor" : [ 0.901961, 0.901961, 0.901961, 1.0 ]
				}

			}
, 			{
				"box" : 				{
					"fontname" : "Zapfino",
					"fontsize" : 14.0,
					"frgb" : 0.0,
					"id" : "obj-37",
					"maxclass" : "comment",
					"numinlets" : 1,
					"numoutlets" : 0,
					"patching_rect" : [ 391.0, 373.5, 191.0, 54.0 ],
					"presentation" : 1,
					"presentation_rect" : [ 253.0, 80.5, 191.0, 54.0 ],
					"text" : "Bitcrushing parameters",
					"textcolor" : [ 0.901961, 0.901961, 0.901961, 1.0 ]
				}

			}
, 			{
				"box" : 				{
					"fontname" : "Avenir Book",
					"fontsize" : 13.0,
					"frgb" : 0.0,
					"id" : "obj-34",
					"maxclass" : "comment",
					"numinlets" : 1,
					"numoutlets" : 0,
					"patching_rect" : [ 61.0, 450.0, 70.0, 24.0 ],
					"presentation" : 1,
					"presentation_rect" : [ 22.5, 134.0, 70.0, 24.0 ],
					"text" : "Main level",
					"textcolor" : [ 0.901961, 0.901961, 0.901961, 1.0 ]
				}

			}
, 			{
				"box" : 				{
					"fontname" : "Avenir Book",
					"fontsize" : 13.0,
					"id" : "obj-35",
					"maxclass" : "newobj",
					"numinlets" : 1,
					"numoutlets" : 0,
					"patching_rect" : [ 61.0, 510.0, 79.0, 24.0 ],
					"text" : "s main-level"
				}

			}
, 			{
				"box" : 				{
					"activebgcolor" : [ 0.909804, 0.909804, 0.909804, 0.0 ],
					"fontface" : 0,
					"fontname" : "Avenir Book",
					"fontsize" : 13.0,
					"id" : "obj-36",
					"maxclass" : "live.numbox",
					"numinlets" : 1,
					"numoutlets" : 2,
					"outlettype" : [ "", "float" ],
					"parameter_enable" : 1,
					"patching_rect" : [ 61.0, 480.0, 55.0, 21.0 ],
					"presentation" : 1,
					"presentation_rect" : [ 30.0, 158.0, 55.0, 21.0 ],
					"saved_attribute_attributes" : 					{
						"valueof" : 						{
							"parameter_longname" : "live.numbox[4]",
							"parameter_shortname" : "live.numbox",
							"parameter_type" : 0,
							"parameter_mmax" : 1.0,
							"parameter_initial_enable" : 1,
							"parameter_initial" : [ 0.0 ],
							"parameter_unitstyle" : 1
						}

					}
,
					"textcolor" : [ 0.901961, 0.901961, 0.901961, 1.0 ],
					"varname" : "live.numbox[4]"
				}

			}
, 			{
				"box" : 				{
					"fontname" : "Zapfino",
					"fontsize" : 14.0,
					"frgb" : 0.0,
					"id" : "obj-33",
					"maxclass" : "comment",
					"numinlets" : 1,
					"numoutlets" : 0,
					"patching_rect" : [ 391.0, 283.5, 139.0, 54.0 ],
					"presentation" : 1,
					"presentation_rect" : [ 255.0, 28.5, 139.0, 54.0 ],
					"text" : "Mic parameters",
					"textcolor" : [ 0.901961, 0.901961, 0.901961, 1.0 ]
				}

			}
, 			{
				"box" : 				{
					"fontname" : "Avenir Book",
					"fontsize" : 13.0,
					"frgb" : 0.0,
					"id" : "obj-30",
					"maxclass" : "comment",
					"numinlets" : 1,
					"numoutlets" : 0,
					"patching_rect" : [ 61.0, 360.0, 91.0, 24.0 ],
					"presentation" : 1,
					"presentation_rect" : [ 26.5, 75.0, 72.0, 24.0 ],
					"text" : "to Bitcrush",
					"textcolor" : [ 0.901961, 0.901961, 0.901961, 1.0 ]
				}

			}
, 			{
				"box" : 				{
					"fontname" : "Avenir Book",
					"fontsize" : 13.0,
					"id" : "obj-31",
					"maxclass" : "newobj",
					"numinlets" : 1,
					"numoutlets" : 0,
					"patching_rect" : [ 61.0, 420.0, 80.0, 24.0 ],
					"text" : "s degrading"
				}

			}
, 			{
				"box" : 				{
					"activebgcolor" : [ 0.909804, 0.909804, 0.909804, 0.0 ],
					"fontface" : 0,
					"fontname" : "Avenir Book",
					"fontsize" : 13.0,
					"id" : "obj-32",
					"maxclass" : "live.numbox",
					"numinlets" : 1,
					"numoutlets" : 2,
					"outlettype" : [ "", "float" ],
					"parameter_enable" : 1,
					"patching_rect" : [ 61.0, 390.0, 55.0, 21.0 ],
					"presentation" : 1,
					"presentation_rect" : [ 30.0, 97.0, 55.0, 21.0 ],
					"saved_attribute_attributes" : 					{
						"valueof" : 						{
							"parameter_longname" : "live.numbox[3]",
							"parameter_shortname" : "live.numbox",
							"parameter_type" : 0,
							"parameter_mmax" : 1.0,
							"parameter_initial_enable" : 1,
							"parameter_initial" : [ 0.0 ],
							"parameter_unitstyle" : 1
						}

					}
,
					"textcolor" : [ 0.901961, 0.901961, 0.901961, 1.0 ],
					"varname" : "live.numbox[3]"
				}

			}
, 			{
				"box" : 				{
					"fontname" : "Avenir Book",
					"fontsize" : 13.0,
					"frgb" : 0.0,
					"id" : "obj-29",
					"maxclass" : "comment",
					"numinlets" : 1,
					"numoutlets" : 0,
					"patching_rect" : [ 203.5, 270.0, 57.0, 24.0 ],
					"presentation" : 1,
					"presentation_rect" : [ 149.5, 22.0, 57.0, 24.0 ],
					"text" : "to Ambi",
					"textcolor" : [ 0.901961, 0.901961, 0.901961, 1.0 ]
				}

			}
, 			{
				"box" : 				{
					"fontname" : "Avenir Book",
					"fontsize" : 13.0,
					"frgb" : 0.0,
					"id" : "obj-28",
					"maxclass" : "comment",
					"numinlets" : 1,
					"numoutlets" : 0,
					"patching_rect" : [ 133.5, 270.0, 47.0, 24.0 ],
					"presentation" : 1,
					"presentation_rect" : [ 92.5, 22.0, 47.0, 24.0 ],
					"text" : "to Rev",
					"textcolor" : [ 0.901961, 0.901961, 0.901961, 1.0 ]
				}

			}
, 			{
				"box" : 				{
					"fontname" : "Avenir Book",
					"fontsize" : 13.0,
					"frgb" : 0.0,
					"id" : "obj-27",
					"maxclass" : "comment",
					"numinlets" : 1,
					"numoutlets" : 0,
					"patching_rect" : [ 63.5, 270.0, 62.0, 24.0 ],
					"presentation" : 1,
					"presentation_rect" : [ 26.5, 22.0, 62.0, 24.0 ],
					"text" : "to Grain",
					"textcolor" : [ 0.901961, 0.901961, 0.901961, 1.0 ]
				}

			}
, 			{
				"box" : 				{
					"activebgcolor" : [ 0.909804, 0.909804, 0.909804, 0.0 ],
					"fontface" : 0,
					"fontname" : "Avenir Book",
					"fontsize" : 13.0,
					"id" : "obj-26",
					"maxclass" : "live.numbox",
					"numinlets" : 1,
					"numoutlets" : 2,
					"outlettype" : [ "", "float" ],
					"parameter_enable" : 1,
					"patching_rect" : [ 204.5, 300.0, 55.0, 21.0 ],
					"presentation" : 1,
					"presentation_rect" : [ 149.5, 45.0, 55.0, 21.0 ],
					"saved_attribute_attributes" : 					{
						"valueof" : 						{
							"parameter_longname" : "live.numbox[2]",
							"parameter_shortname" : "live.numbox",
							"parameter_type" : 0,
							"parameter_mmax" : 1.0,
							"parameter_initial_enable" : 1,
							"parameter_initial" : [ 0.0 ],
							"parameter_unitstyle" : 1
						}

					}
,
					"textcolor" : [ 0.901961, 0.901961, 0.901961, 1.0 ],
					"varname" : "live.numbox[2]"
				}

			}
, 			{
				"box" : 				{
					"activebgcolor" : [ 0.909804, 0.909804, 0.909804, 0.0 ],
					"fontface" : 0,
					"fontname" : "Avenir Book",
					"fontsize" : 13.0,
					"id" : "obj-24",
					"maxclass" : "live.numbox",
					"numinlets" : 1,
					"numoutlets" : 2,
					"outlettype" : [ "", "float" ],
					"parameter_enable" : 1,
					"patching_rect" : [ 133.5, 300.0, 55.0, 21.0 ],
					"presentation" : 1,
					"presentation_rect" : [ 88.5, 45.0, 55.0, 21.0 ],
					"saved_attribute_attributes" : 					{
						"valueof" : 						{
							"parameter_longname" : "live.numbox[1]",
							"parameter_shortname" : "live.numbox",
							"parameter_type" : 0,
							"parameter_mmax" : 1.0,
							"parameter_initial_enable" : 1,
							"parameter_initial" : [ 0.0 ],
							"parameter_unitstyle" : 1
						}

					}
,
					"textcolor" : [ 0.901961, 0.901961, 0.901961, 1.0 ],
					"varname" : "live.numbox[1]"
				}

			}
, 			{
				"box" : 				{
					"activebgcolor" : [ 0.909804, 0.909804, 0.909804, 0.0 ],
					"fontface" : 0,
					"fontname" : "Avenir Book",
					"fontsize" : 13.0,
					"id" : "obj-19",
					"maxclass" : "live.numbox",
					"numinlets" : 1,
					"numoutlets" : 2,
					"outlettype" : [ "", "float" ],
					"parameter_enable" : 1,
					"patching_rect" : [ 63.5, 300.0, 55.0, 21.0 ],
					"presentation" : 1,
					"presentation_rect" : [ 30.0, 45.0, 55.0, 21.0 ],
					"saved_attribute_attributes" : 					{
						"valueof" : 						{
							"parameter_longname" : "live.numbox",
							"parameter_shortname" : "live.numbox",
							"parameter_type" : 0,
							"parameter_mmax" : 1.0,
							"parameter_initial_enable" : 1,
							"parameter_initial" : [ 0.0 ],
							"parameter_unitstyle" : 1
						}

					}
,
					"textcolor" : [ 0.901961, 0.901961, 0.901961, 1.0 ],
					"varname" : "live.numbox"
				}

			}
, 			{
				"box" : 				{
					"fontname" : "Avenir Book",
					"fontsize" : 13.0,
					"id" : "obj-18",
					"maxclass" : "newobj",
					"numinlets" : 0,
					"numoutlets" : 1,
					"outlettype" : [ "" ],
					"patching_rect" : [ 482.0, 45.0, 72.0, 24.0 ],
					"text" : "r mic-ambi"
				}

			}
, 			{
				"box" : 				{
					"fontname" : "Avenir Book",
					"fontsize" : 13.0,
					"id" : "obj-17",
					"maxclass" : "newobj",
					"numinlets" : 0,
					"numoutlets" : 1,
					"outlettype" : [ "" ],
					"patching_rect" : [ 302.0, 45.0, 61.0, 24.0 ],
					"text" : "r mic-rev"
				}

			}
, 			{
				"box" : 				{
					"fontname" : "Avenir Book",
					"fontsize" : 13.0,
					"id" : "obj-16",
					"maxclass" : "newobj",
					"numinlets" : 0,
					"numoutlets" : 1,
					"outlettype" : [ "" ],
					"patching_rect" : [ 92.0, 45.0, 68.0, 24.0 ],
					"text" : "r mic-gain"
				}

			}
, 			{
				"box" : 				{
					"fontname" : "Avenir Book",
					"fontsize" : 13.0,
					"id" : "obj-15",
					"maxclass" : "flonum",
					"numinlets" : 1,
					"numoutlets" : 2,
					"outlettype" : [ "float", "bang" ],
					"parameter_enable" : 0,
					"patching_rect" : [ 482.0, 90.0, 50.0, 24.0 ]
				}

			}
, 			{
				"box" : 				{
					"fontname" : "Avenir Book",
					"fontsize" : 13.0,
					"id" : "obj-14",
					"maxclass" : "flonum",
					"numinlets" : 1,
					"numoutlets" : 2,
					"outlettype" : [ "float", "bang" ],
					"parameter_enable" : 0,
					"patching_rect" : [ 302.0, 90.0, 50.0, 24.0 ]
				}

			}
, 			{
				"box" : 				{
					"fontname" : "Avenir Book",
					"fontsize" : 13.0,
					"id" : "obj-13",
					"maxclass" : "flonum",
					"numinlets" : 1,
					"numoutlets" : 2,
					"outlettype" : [ "float", "bang" ],
					"parameter_enable" : 0,
					"patching_rect" : [ 92.0, 90.0, 50.0, 24.0 ]
				}

			}
, 			{
				"box" : 				{
					"fontname" : "Avenir Book",
					"fontsize" : 13.0,
					"id" : "obj-11",
					"maxclass" : "newobj",
					"numinlets" : 1,
					"numoutlets" : 0,
					"patching_rect" : [ 450.0, 180.0, 106.0, 24.0 ],
					"text" : "send~ encode-1"
				}

			}
, 			{
				"box" : 				{
					"fontname" : "Avenir Book",
					"fontsize" : 13.0,
					"frgb" : 0.0,
					"id" : "obj-10",
					"maxclass" : "comment",
					"numinlets" : 1,
					"numoutlets" : 0,
					"patching_rect" : [ 501.0, 135.0, 144.0, 24.0 ],
					"text" : "Ambisonic gain control"
				}

			}
, 			{
				"box" : 				{
					"fontname" : "Avenir Book",
					"fontsize" : 13.0,
					"id" : "obj-9",
					"maxclass" : "newobj",
					"numinlets" : 2,
					"numoutlets" : 1,
					"outlettype" : [ "signal" ],
					"patching_rect" : [ 450.0, 135.0, 51.0, 24.0 ],
					"text" : "*~"
				}

			}
, 			{
				"box" : 				{
					"fontname" : "Avenir Book",
					"fontsize" : 13.0,
					"id" : "obj-8",
					"maxclass" : "newobj",
					"numinlets" : 1,
					"numoutlets" : 0,
					"patching_rect" : [ 270.0, 180.0, 103.0, 24.0 ],
					"text" : "send~ reverb-in"
				}

			}
, 			{
				"box" : 				{
					"fontname" : "Avenir Book",
					"fontsize" : 13.0,
					"frgb" : 0.0,
					"id" : "obj-7",
					"maxclass" : "comment",
					"numinlets" : 1,
					"numoutlets" : 0,
					"patching_rect" : [ 321.0, 135.0, 127.0, 24.0 ],
					"text" : "Reverb send control"
				}

			}
, 			{
				"box" : 				{
					"fontname" : "Avenir Book",
					"fontsize" : 13.0,
					"id" : "obj-6",
					"maxclass" : "newobj",
					"numinlets" : 2,
					"numoutlets" : 1,
					"outlettype" : [ "signal" ],
					"patching_rect" : [ 270.0, 135.0, 51.0, 24.0 ],
					"text" : "*~"
				}

			}
, 			{
				"box" : 				{
					"fontname" : "Avenir Book",
					"fontsize" : 13.0,
					"id" : "obj-5",
					"maxclass" : "newobj",
					"numinlets" : 1,
					"numoutlets" : 0,
					"patching_rect" : [ 60.0, 180.0, 106.0, 24.0 ],
					"text" : "send~ real-grain"
				}

			}
, 			{
				"box" : 				{
					"fontname" : "Avenir Book",
					"fontsize" : 13.0,
					"frgb" : 0.0,
					"id" : "obj-4",
					"maxclass" : "comment",
					"numinlets" : 1,
					"numoutlets" : 0,
					"patching_rect" : [ 111.0, 135.0, 153.0, 24.0 ],
					"text" : "Microphone gain control"
				}

			}
, 			{
				"box" : 				{
					"fontname" : "Avenir Book",
					"fontsize" : 13.0,
					"id" : "obj-2",
					"maxclass" : "newobj",
					"numinlets" : 2,
					"numoutlets" : 1,
					"outlettype" : [ "signal" ],
					"patching_rect" : [ 60.0, 135.0, 51.0, 24.0 ],
					"text" : "*~"
				}

			}
, 			{
				"box" : 				{
					"fontname" : "Avenir Book",
					"fontsize" : 13.0,
					"id" : "obj-1",
					"maxclass" : "newobj",
					"numinlets" : 1,
					"numoutlets" : 1,
					"outlettype" : [ "signal" ],
					"patching_rect" : [ 60.0, 15.0, 51.0, 24.0 ],
					"text" : "adc~ 1"
				}

			}
, 			{
				"box" : 				{
					"alpha" : 0.7,
					"id" : "obj-48",
					"maxclass" : "fpic",
					"numinlets" : 1,
					"numoutlets" : 0,
					"patching_rect" : [ 615.0, 210.0, 100.0, 50.0 ],
					"pic" : "main-abstract.jpg",
					"presentation" : 1,
					"presentation_rect" : [ 0.0, 0.0, 465.0, 256.5 ]
				}

			}
 ],
		"lines" : [ 			{
				"patchline" : 				{
					"destination" : [ "obj-2", 0 ],
					"disabled" : 0,
					"hidden" : 0,
					"source" : [ "obj-1", 0 ]
				}

			}
, 			{
				"patchline" : 				{
					"destination" : [ "obj-6", 0 ],
					"disabled" : 0,
					"hidden" : 0,
					"midpoints" : [ 69.5, 86.5, 279.5, 86.5 ],
					"source" : [ "obj-1", 0 ]
				}

			}
, 			{
				"patchline" : 				{
					"destination" : [ "obj-9", 0 ],
					"disabled" : 0,
					"hidden" : 0,
					"midpoints" : [ 69.5, 86.5, 459.5, 86.5 ],
					"source" : [ "obj-1", 0 ]
				}

			}
, 			{
				"patchline" : 				{
					"destination" : [ "obj-3", 0 ],
					"disabled" : 0,
					"hidden" : 0,
					"source" : [ "obj-12", 0 ]
				}

			}
, 			{
				"patchline" : 				{
					"destination" : [ "obj-19", 0 ],
					"disabled" : 0,
					"hidden" : 0,
					"source" : [ "obj-13", 0 ]
				}

			}
, 			{
				"patchline" : 				{
					"destination" : [ "obj-2", 1 ],
					"disabled" : 0,
					"hidden" : 0,
					"source" : [ "obj-13", 0 ]
				}

			}
, 			{
				"patchline" : 				{
					"destination" : [ "obj-24", 0 ],
					"disabled" : 0,
					"hidden" : 0,
					"midpoints" : [ 311.5, 232.5, 143.0, 232.5 ],
					"source" : [ "obj-14", 0 ]
				}

			}
, 			{
				"patchline" : 				{
					"destination" : [ "obj-6", 1 ],
					"disabled" : 0,
					"hidden" : 0,
					"source" : [ "obj-14", 0 ]
				}

			}
, 			{
				"patchline" : 				{
					"destination" : [ "obj-26", 0 ],
					"disabled" : 0,
					"hidden" : 0,
					"midpoints" : [ 491.5, 246.5, 214.0, 246.5 ],
					"source" : [ "obj-15", 0 ]
				}

			}
, 			{
				"patchline" : 				{
					"destination" : [ "obj-9", 1 ],
					"disabled" : 0,
					"hidden" : 0,
					"source" : [ "obj-15", 0 ]
				}

			}
, 			{
				"patchline" : 				{
					"destination" : [ "obj-13", 0 ],
					"disabled" : 0,
					"hidden" : 0,
					"source" : [ "obj-16", 0 ]
				}

			}
, 			{
				"patchline" : 				{
					"destination" : [ "obj-14", 0 ],
					"disabled" : 0,
					"hidden" : 0,
					"source" : [ "obj-17", 0 ]
				}

			}
, 			{
				"patchline" : 				{
					"destination" : [ "obj-15", 0 ],
					"disabled" : 0,
					"hidden" : 0,
					"source" : [ "obj-18", 0 ]
				}

			}
, 			{
				"patchline" : 				{
					"destination" : [ "obj-5", 0 ],
					"disabled" : 0,
					"hidden" : 0,
					"source" : [ "obj-2", 0 ]
				}

			}
, 			{
				"patchline" : 				{
					"destination" : [ "obj-31", 0 ],
					"disabled" : 0,
					"hidden" : 0,
					"source" : [ "obj-32", 0 ]
				}

			}
, 			{
				"patchline" : 				{
					"destination" : [ "obj-35", 0 ],
					"disabled" : 0,
					"hidden" : 0,
					"source" : [ "obj-36", 0 ]
				}

			}
, 			{
				"patchline" : 				{
					"destination" : [ "obj-40", 0 ],
					"disabled" : 0,
					"hidden" : 0,
					"source" : [ "obj-41", 0 ]
				}

			}
, 			{
				"patchline" : 				{
					"destination" : [ "obj-44", 0 ],
					"disabled" : 0,
					"hidden" : 0,
					"source" : [ "obj-43", 0 ]
				}

			}
, 			{
				"patchline" : 				{
					"destination" : [ "obj-47", 0 ],
					"disabled" : 0,
					"hidden" : 0,
					"source" : [ "obj-46", 0 ]
				}

			}
, 			{
				"patchline" : 				{
					"destination" : [ "obj-8", 0 ],
					"disabled" : 0,
					"hidden" : 0,
					"source" : [ "obj-6", 0 ]
				}

			}
, 			{
				"patchline" : 				{
					"destination" : [ "obj-11", 0 ],
					"disabled" : 0,
					"hidden" : 0,
					"source" : [ "obj-9", 0 ]
				}

			}
 ],
		"parameters" : 		{
			"obj-12" : [ "live.numbox[6]", "live.numbox", 0 ],
			"obj-41" : [ "live.numbox[5]", "live.numbox", 0 ],
			"obj-24" : [ "live.numbox[1]", "live.numbox", 0 ],
			"obj-46" : [ "live.numbox[8]", "live.numbox", 0 ],
			"obj-43" : [ "live.numbox[7]", "live.numbox", 0 ],
			"obj-36" : [ "live.numbox[4]", "live.numbox", 0 ],
			"obj-26" : [ "live.numbox[2]", "live.numbox", 0 ],
			"obj-19" : [ "live.numbox", "live.numbox", 0 ],
			"obj-32" : [ "live.numbox[3]", "live.numbox", 0 ]
		}
,
		"dependency_cache" : [ 			{
				"name" : "main-abstract.jpg",
				"bootpath" : "/Users/Boggiz/Dropbox/MaxMSP/Progetti/Varie",
				"patcherrelativepath" : ".",
				"type" : "JPEG",
				"implicit" : 1
			}
 ]
	}

}
